%TF.GenerationSoftware,KiCad,Pcbnew,(6.0.4)*%
%TF.CreationDate,2022-06-15T15:41:16+05:30*%
%TF.ProjectId,subiksha batch,73756269-6b73-4686-9120-62617463682e,rev?*%
%TF.SameCoordinates,Original*%
%TF.FileFunction,Copper,L1,Top*%
%TF.FilePolarity,Positive*%
%FSLAX46Y46*%
G04 Gerber Fmt 4.6, Leading zero omitted, Abs format (unit mm)*
G04 Created by KiCad (PCBNEW (6.0.4)) date 2022-06-15 15:41:16*
%MOMM*%
%LPD*%
G01*
G04 APERTURE LIST*
G04 Aperture macros list*
%AMRoundRect*
0 Rectangle with rounded corners*
0 $1 Rounding radius*
0 $2 $3 $4 $5 $6 $7 $8 $9 X,Y pos of 4 corners*
0 Add a 4 corners polygon primitive as box body*
4,1,4,$2,$3,$4,$5,$6,$7,$8,$9,$2,$3,0*
0 Add four circle primitives for the rounded corners*
1,1,$1+$1,$2,$3*
1,1,$1+$1,$4,$5*
1,1,$1+$1,$6,$7*
1,1,$1+$1,$8,$9*
0 Add four rect primitives between the rounded corners*
20,1,$1+$1,$2,$3,$4,$5,0*
20,1,$1+$1,$4,$5,$6,$7,0*
20,1,$1+$1,$6,$7,$8,$9,0*
20,1,$1+$1,$8,$9,$2,$3,0*%
G04 Aperture macros list end*
%TA.AperFunction,ComponentPad*%
%ADD10R,1.050000X1.500000*%
%TD*%
%TA.AperFunction,ComponentPad*%
%ADD11O,1.050000X1.500000*%
%TD*%
%TA.AperFunction,ComponentPad*%
%ADD12C,1.400000*%
%TD*%
%TA.AperFunction,ComponentPad*%
%ADD13O,1.400000X1.400000*%
%TD*%
%TA.AperFunction,ComponentPad*%
%ADD14R,2.000000X2.000000*%
%TD*%
%TA.AperFunction,ComponentPad*%
%ADD15C,2.000000*%
%TD*%
%TA.AperFunction,ComponentPad*%
%ADD16R,3.000000X3.000000*%
%TD*%
%TA.AperFunction,ComponentPad*%
%ADD17C,3.000000*%
%TD*%
%TA.AperFunction,ComponentPad*%
%ADD18O,2.000000X2.000000*%
%TD*%
%TA.AperFunction,SMDPad,CuDef*%
%ADD19RoundRect,0.150000X-0.825000X-0.150000X0.825000X-0.150000X0.825000X0.150000X-0.825000X0.150000X0*%
%TD*%
%TA.AperFunction,Conductor*%
%ADD20C,0.550000*%
%TD*%
G04 APERTURE END LIST*
D10*
%TO.P,Q2,1,C*%
%TO.N,Net-(BZ1-Pad2)*%
X170180000Y-101600000D03*
D11*
%TO.P,Q2,2,B*%
%TO.N,Net-(R5-Pad2)*%
X171450000Y-101600000D03*
%TO.P,Q2,3,E*%
%TO.N,GND*%
X172720000Y-101600000D03*
%TD*%
D12*
%TO.P,R3,1*%
%TO.N,Net-(R3-Pad1)*%
X143510000Y-101600000D03*
D13*
%TO.P,R3,2*%
%TO.N,Net-(R3-Pad2)*%
X135890000Y-101600000D03*
%TD*%
D12*
%TO.P,R4,1*%
%TO.N,Net-(J1-Pad2)*%
X138430000Y-88900000D03*
D13*
%TO.P,R4,2*%
%TO.N,GND*%
X146050000Y-88900000D03*
%TD*%
D14*
%TO.P,BZ1,1,-*%
%TO.N,VCC*%
X165100000Y-91440000D03*
D15*
%TO.P,BZ1,2,+*%
%TO.N,Net-(BZ1-Pad2)*%
X172700000Y-91440000D03*
%TD*%
D16*
%TO.P,J1,1,Pin_1*%
%TO.N,Net-(R2-Pad1)*%
X129540000Y-83820000D03*
D17*
%TO.P,J1,2,Pin_2*%
%TO.N,Net-(J1-Pad2)*%
X129540000Y-87700000D03*
%TD*%
D12*
%TO.P,R2,1*%
%TO.N,Net-(R2-Pad1)*%
X146050000Y-86360000D03*
D13*
%TO.P,R2,2*%
%TO.N,Net-(Q1-Pad2)*%
X153670000Y-86360000D03*
%TD*%
D14*
%TO.P,C3,1*%
%TO.N,Net-(R3-Pad2)*%
X139580000Y-96277500D03*
D18*
%TO.P,C3,2*%
%TO.N,GND*%
X124580000Y-96277500D03*
%TD*%
D12*
%TO.P,R1,1*%
%TO.N,VCC*%
X158750000Y-101600000D03*
D13*
%TO.P,R1,2*%
%TO.N,Net-(Q1-Pad2)*%
X166370000Y-101600000D03*
%TD*%
D12*
%TO.P,R5,1*%
%TO.N,Net-(R3-Pad1)*%
X148590000Y-101600000D03*
D13*
%TO.P,R5,2*%
%TO.N,Net-(R5-Pad2)*%
X156210000Y-101600000D03*
%TD*%
D10*
%TO.P,Q1,1,C*%
%TO.N,VCC*%
X157480000Y-93980000D03*
D11*
%TO.P,Q1,2,B*%
%TO.N,Net-(Q1-Pad2)*%
X158750000Y-93980000D03*
%TO.P,Q1,3,E*%
%TO.N,Net-(Q1-Pad3)*%
X160020000Y-93980000D03*
%TD*%
D19*
%TO.P,U1,1,GND*%
%TO.N,GND*%
X147385000Y-92075000D03*
%TO.P,U1,2,TR*%
%TO.N,Net-(R3-Pad2)*%
X147385000Y-93345000D03*
%TO.P,U1,3,Q*%
%TO.N,Net-(R3-Pad1)*%
X147385000Y-94615000D03*
%TO.P,U1,4,R*%
%TO.N,Net-(Q1-Pad3)*%
X147385000Y-95885000D03*
%TO.P,U1,5,CV*%
%TO.N,Net-(C2-Pad1)*%
X152335000Y-95885000D03*
%TO.P,U1,6,THR*%
%TO.N,Net-(R3-Pad2)*%
X152335000Y-94615000D03*
%TO.P,U1,7,DIS*%
%TO.N,unconnected-(U1-Pad7)*%
X152335000Y-93345000D03*
%TO.P,U1,8,VCC*%
%TO.N,Net-(Q1-Pad3)*%
X152335000Y-92075000D03*
%TD*%
D14*
%TO.P,C2,1*%
%TO.N,Net-(C2-Pad1)*%
X157050000Y-82735000D03*
D18*
%TO.P,C2,2*%
%TO.N,GND*%
X172050000Y-82735000D03*
%TD*%
D14*
%TO.P,C1,1*%
%TO.N,Net-(R2-Pad1)*%
X138500000Y-81522500D03*
D18*
%TO.P,C1,2*%
%TO.N,GND*%
X153500000Y-81522500D03*
%TD*%
D20*
%TO.N,Net-(C2-Pad1)*%
X177780489Y-81260489D02*
X158524511Y-81260489D01*
X158524511Y-81260489D02*
X157050000Y-82735000D01*
X177800000Y-104140000D02*
X177800000Y-81280000D01*
X154940000Y-106680000D02*
X175260000Y-106680000D01*
X177800000Y-81280000D02*
X177780489Y-81260489D01*
X152335000Y-104075000D02*
X154940000Y-106680000D01*
X152335000Y-95885000D02*
X152335000Y-104075000D01*
X175260000Y-106680000D02*
X177800000Y-104140000D01*
%TO.N,Net-(R5-Pad2)*%
X156210000Y-104140000D02*
X170180000Y-104140000D01*
X170180000Y-104140000D02*
X171450000Y-102870000D01*
X171450000Y-102870000D02*
X171450000Y-101600000D01*
X156210000Y-101600000D02*
X156210000Y-104140000D01*
%TO.N,Net-(Q1-Pad2)*%
X162560000Y-94260051D02*
X162560000Y-99060000D01*
X154659949Y-86360000D02*
X162560000Y-94260051D01*
X153670000Y-86360000D02*
X154659949Y-86360000D01*
%TO.N,Net-(R2-Pad1)*%
X137415000Y-82607500D02*
X138500000Y-81522500D01*
X137415000Y-83820000D02*
X137415000Y-82607500D01*
X141212500Y-81522500D02*
X146050000Y-86360000D01*
X138500000Y-81522500D02*
X141212500Y-81522500D01*
%TO.N,GND*%
X153500000Y-83499022D02*
X152789511Y-84209511D01*
X152789511Y-84209511D02*
X170575489Y-84209511D01*
X153500000Y-81522500D02*
X153500000Y-83499022D01*
X152125489Y-84209511D02*
X152789511Y-84209511D01*
X170575489Y-84209511D02*
X172050000Y-82735000D01*
X147385000Y-88950000D02*
X152125489Y-84209511D01*
%TO.N,VCC*%
X167640000Y-93980000D02*
X165100000Y-91440000D01*
X166856499Y-102774511D02*
X167640000Y-101991010D01*
X167640000Y-101991010D02*
X167640000Y-93980000D01*
X158750000Y-101600000D02*
X159924511Y-102774511D01*
X159924511Y-102774511D02*
X166856499Y-102774511D01*
%TO.N,Net-(Q1-Pad3)*%
X151700000Y-91440000D02*
X152335000Y-92075000D01*
X149860000Y-93998204D02*
X149860000Y-91440000D01*
X149860000Y-91440000D02*
X151700000Y-91440000D01*
X147973204Y-95885000D02*
X149860000Y-93998204D01*
X147385000Y-95885000D02*
X147973204Y-95885000D01*
%TO.N,Net-(R3-Pad2)*%
X151746796Y-94615000D02*
X152335000Y-94615000D01*
X149860000Y-104140000D02*
X149860000Y-96501796D01*
X149860000Y-96501796D02*
X151746796Y-94615000D01*
X138430000Y-104140000D02*
X149860000Y-104140000D01*
X135890000Y-101600000D02*
X138430000Y-104140000D01*
%TO.N,Net-(Q1-Pad3)*%
X158483534Y-92075000D02*
X152335000Y-92075000D01*
X160020000Y-93611466D02*
X158483534Y-92075000D01*
X160020000Y-93980000D02*
X160020000Y-93611466D01*
%TO.N,GND*%
X174174511Y-84859511D02*
X172050000Y-82735000D01*
X174174511Y-100145489D02*
X174174511Y-84859511D01*
X172720000Y-101600000D02*
X174174511Y-100145489D01*
%TO.N,Net-(BZ1-Pad2)*%
X170180000Y-93960000D02*
X170180000Y-101600000D01*
X172700000Y-91440000D02*
X170180000Y-93960000D01*
%TO.N,Net-(Q1-Pad2)*%
X165070000Y-101600000D02*
X166370000Y-101600000D01*
X158750000Y-95280000D02*
X165070000Y-101600000D01*
X158750000Y-93980000D02*
X158750000Y-95280000D01*
%TO.N,VCC*%
X157480000Y-97790000D02*
X160020000Y-100330000D01*
X157480000Y-93980000D02*
X157480000Y-97790000D01*
%TO.N,GND*%
X147385000Y-88950000D02*
X147335000Y-88900000D01*
X147385000Y-92075000D02*
X147385000Y-88950000D01*
%TO.N,VCC*%
X158750000Y-101600000D02*
X160020000Y-100330000D01*
%TO.N,Net-(R3-Pad1)*%
X143510000Y-101600000D02*
X148590000Y-101600000D01*
X146796796Y-94615000D02*
X143510000Y-97901796D01*
X147385000Y-94615000D02*
X146796796Y-94615000D01*
X143510000Y-97901796D02*
X143510000Y-101600000D01*
%TO.N,Net-(R3-Pad2)*%
X142512500Y-93345000D02*
X147385000Y-93345000D01*
X139580000Y-96277500D02*
X142512500Y-93345000D01*
X139580000Y-97910000D02*
X135890000Y-101600000D01*
X139580000Y-96277500D02*
X139580000Y-97910000D01*
%TO.N,GND*%
X142240000Y-88900000D02*
X146050000Y-88900000D01*
X134862500Y-96277500D02*
X142240000Y-88900000D01*
X124580000Y-96277500D02*
X134862500Y-96277500D01*
X146050000Y-88900000D02*
X147335000Y-88900000D01*
%TO.N,Net-(J1-Pad2)*%
X137230000Y-87700000D02*
X138430000Y-88900000D01*
X129540000Y-87700000D02*
X137230000Y-87700000D01*
%TO.N,Net-(R2-Pad1)*%
X129540000Y-83820000D02*
X137415000Y-83820000D01*
%TD*%
%TA.AperFunction,NonConductor*%
G36*
X170582986Y-82063991D02*
G01*
X170629479Y-82117647D01*
X170639583Y-82187921D01*
X170631274Y-82218205D01*
X170626471Y-82229802D01*
X170617691Y-82251000D01*
X170610895Y-82267406D01*
X170601158Y-82307963D01*
X170560785Y-82476131D01*
X170555465Y-82498289D01*
X170536835Y-82735000D01*
X170555465Y-82971711D01*
X170556620Y-82976520D01*
X170556621Y-82976529D01*
X170567991Y-83023885D01*
X170564445Y-83094793D01*
X170534568Y-83142396D01*
X170287858Y-83389106D01*
X170225546Y-83423132D01*
X170198763Y-83426011D01*
X158684500Y-83426011D01*
X158616379Y-83406009D01*
X158569886Y-83352353D01*
X158558500Y-83300011D01*
X158558500Y-82386727D01*
X158578502Y-82318606D01*
X158595405Y-82297632D01*
X158812143Y-82080894D01*
X158874455Y-82046868D01*
X158901238Y-82043989D01*
X170514865Y-82043989D01*
X170582986Y-82063991D01*
G37*
%TD.AperFunction*%
%TA.AperFunction,NonConductor*%
G36*
X152781831Y-84993018D02*
G01*
X152869189Y-84993933D01*
X152872405Y-84993238D01*
X152876877Y-84993011D01*
X153173614Y-84993011D01*
X153241735Y-85013013D01*
X153288228Y-85066669D01*
X153298332Y-85136943D01*
X153268838Y-85201523D01*
X153226864Y-85233206D01*
X153068423Y-85307088D01*
X153068420Y-85307090D01*
X153063442Y-85309411D01*
X152890224Y-85430699D01*
X152740699Y-85580224D01*
X152619411Y-85753442D01*
X152617090Y-85758420D01*
X152617088Y-85758423D01*
X152548164Y-85906232D01*
X152530044Y-85945090D01*
X152528622Y-85950398D01*
X152528621Y-85950400D01*
X152498797Y-86061706D01*
X152475314Y-86149345D01*
X152456884Y-86360000D01*
X152475314Y-86570655D01*
X152476738Y-86575968D01*
X152476738Y-86575970D01*
X152494678Y-86642921D01*
X152530044Y-86774910D01*
X152532366Y-86779891D01*
X152532367Y-86779892D01*
X152614632Y-86956309D01*
X152619411Y-86966558D01*
X152740699Y-87139776D01*
X152890224Y-87289301D01*
X153063442Y-87410589D01*
X153068420Y-87412910D01*
X153068423Y-87412912D01*
X153250108Y-87497633D01*
X153255090Y-87499956D01*
X153260398Y-87501378D01*
X153260400Y-87501379D01*
X153454030Y-87553262D01*
X153454032Y-87553262D01*
X153459345Y-87554686D01*
X153670000Y-87573116D01*
X153880655Y-87554686D01*
X153885968Y-87553262D01*
X153885970Y-87553262D01*
X154079600Y-87501379D01*
X154079602Y-87501378D01*
X154084910Y-87499956D01*
X154089892Y-87497633D01*
X154271577Y-87412912D01*
X154271580Y-87412910D01*
X154276558Y-87410589D01*
X154381663Y-87336994D01*
X154448934Y-87314307D01*
X154517795Y-87331592D01*
X154543026Y-87351113D01*
X158268317Y-91076405D01*
X158302343Y-91138717D01*
X158297278Y-91209533D01*
X158254731Y-91266368D01*
X158188211Y-91291179D01*
X158179222Y-91291500D01*
X153357701Y-91291500D01*
X153322551Y-91286497D01*
X153263831Y-91269438D01*
X153257421Y-91268933D01*
X153257418Y-91268933D01*
X153228958Y-91266693D01*
X153228950Y-91266693D01*
X153226502Y-91266500D01*
X152686726Y-91266500D01*
X152618605Y-91246498D01*
X152597631Y-91229595D01*
X152260419Y-90892383D01*
X152259490Y-90891445D01*
X152250048Y-90881803D01*
X152198329Y-90828989D01*
X152192407Y-90825172D01*
X152192404Y-90825170D01*
X152163178Y-90806335D01*
X152152839Y-90798907D01*
X152120150Y-90772812D01*
X152113808Y-90769746D01*
X152113803Y-90769743D01*
X152091110Y-90758773D01*
X152077698Y-90751247D01*
X152056500Y-90737586D01*
X152056495Y-90737584D01*
X152050576Y-90733769D01*
X152011281Y-90719467D01*
X151999537Y-90714506D01*
X151968244Y-90699378D01*
X151968242Y-90699377D01*
X151961895Y-90696309D01*
X151930456Y-90689051D01*
X151915720Y-90684685D01*
X151892020Y-90676059D01*
X151892016Y-90676058D01*
X151885400Y-90673650D01*
X151878414Y-90672767D01*
X151878412Y-90672767D01*
X151843921Y-90668410D01*
X151831369Y-90666175D01*
X151824130Y-90664504D01*
X151790623Y-90656768D01*
X151783583Y-90656743D01*
X151783580Y-90656743D01*
X151751296Y-90656630D01*
X151750459Y-90656602D01*
X151749646Y-90656500D01*
X151714054Y-90656500D01*
X151713614Y-90656499D01*
X151707859Y-90656479D01*
X151614847Y-90656154D01*
X151613679Y-90656415D01*
X151612111Y-90656500D01*
X149914412Y-90656500D01*
X149899493Y-90655614D01*
X149897208Y-90655342D01*
X149865504Y-90651561D01*
X149820640Y-90656276D01*
X149817858Y-90656500D01*
X149815799Y-90656500D01*
X149807744Y-90657403D01*
X149775867Y-90660978D01*
X149774997Y-90661073D01*
X149720986Y-90666751D01*
X149690690Y-90669935D01*
X149688068Y-90670827D01*
X149685318Y-90671136D01*
X149679235Y-90673254D01*
X149679232Y-90673255D01*
X149605401Y-90698966D01*
X149604609Y-90699240D01*
X149524291Y-90726582D01*
X149521933Y-90728033D01*
X149519319Y-90728943D01*
X149513829Y-90732374D01*
X149513826Y-90732375D01*
X149505487Y-90737586D01*
X149447401Y-90773882D01*
X149446840Y-90774231D01*
X149374577Y-90818687D01*
X149372600Y-90820623D01*
X149370251Y-90822091D01*
X149365659Y-90826651D01*
X149310121Y-90881803D01*
X149309494Y-90882421D01*
X149248989Y-90941671D01*
X149247489Y-90943999D01*
X149245525Y-90945949D01*
X149242053Y-90951420D01*
X149200078Y-91017563D01*
X149199740Y-91018092D01*
X149153769Y-91089424D01*
X149152822Y-91092027D01*
X149151339Y-91094363D01*
X149134545Y-91141526D01*
X149122928Y-91174151D01*
X149122630Y-91174979D01*
X149093650Y-91254600D01*
X149093303Y-91257346D01*
X149092374Y-91259955D01*
X149091608Y-91266375D01*
X149091608Y-91266377D01*
X149082338Y-91344115D01*
X149082231Y-91344986D01*
X149076500Y-91390354D01*
X149076500Y-91392421D01*
X149076248Y-91395190D01*
X149071561Y-91434496D01*
X149072297Y-91441499D01*
X149072297Y-91441500D01*
X149075810Y-91474922D01*
X149076500Y-91488093D01*
X149076500Y-91661899D01*
X149056498Y-91730020D01*
X149002842Y-91776513D01*
X148932568Y-91786617D01*
X148867988Y-91757123D01*
X148829503Y-91697051D01*
X148821358Y-91669014D01*
X148821356Y-91669009D01*
X148819145Y-91661399D01*
X148802107Y-91632589D01*
X148738491Y-91525020D01*
X148738489Y-91525017D01*
X148734453Y-91518193D01*
X148616807Y-91400547D01*
X148609983Y-91396511D01*
X148609980Y-91396509D01*
X148480427Y-91319892D01*
X148480428Y-91319892D01*
X148473601Y-91315855D01*
X148465990Y-91313644D01*
X148465988Y-91313643D01*
X148413769Y-91298472D01*
X148313831Y-91269438D01*
X148307418Y-91268933D01*
X148307411Y-91268932D01*
X148284612Y-91267137D01*
X148218271Y-91241851D01*
X148176132Y-91184712D01*
X148168500Y-91141526D01*
X148168500Y-89326726D01*
X148188502Y-89258605D01*
X148205405Y-89237631D01*
X152413120Y-85029916D01*
X152475432Y-84995890D01*
X152502215Y-84993011D01*
X152780510Y-84993011D01*
X152781831Y-84993018D01*
G37*
%TD.AperFunction*%
%TA.AperFunction,NonConductor*%
G36*
X150852012Y-92392877D02*
G01*
X150890497Y-92452949D01*
X150898642Y-92480986D01*
X150898644Y-92480991D01*
X150900855Y-92488601D01*
X150985547Y-92631807D01*
X150988229Y-92634489D01*
X151013502Y-92698861D01*
X150999600Y-92768484D01*
X150989428Y-92784312D01*
X150985547Y-92788193D01*
X150900855Y-92931399D01*
X150898644Y-92939009D01*
X150898642Y-92939014D01*
X150890497Y-92967051D01*
X150852284Y-93026887D01*
X150787788Y-93056565D01*
X150717486Y-93046662D01*
X150663697Y-93000323D01*
X150643500Y-92931899D01*
X150643500Y-92488101D01*
X150663502Y-92419980D01*
X150717158Y-92373487D01*
X150787432Y-92363383D01*
X150852012Y-92392877D01*
G37*
%TD.AperFunction*%
%TA.AperFunction,NonConductor*%
G36*
X149002514Y-92373338D02*
G01*
X149056303Y-92419677D01*
X149076500Y-92488101D01*
X149076500Y-92931899D01*
X149056498Y-93000020D01*
X149002842Y-93046513D01*
X148932568Y-93056617D01*
X148867988Y-93027123D01*
X148829503Y-92967051D01*
X148821358Y-92939014D01*
X148821356Y-92939009D01*
X148819145Y-92931399D01*
X148734453Y-92788193D01*
X148731771Y-92785511D01*
X148706498Y-92721139D01*
X148720400Y-92651516D01*
X148730572Y-92635688D01*
X148734453Y-92631807D01*
X148819145Y-92488601D01*
X148821356Y-92480991D01*
X148821358Y-92480986D01*
X148829503Y-92452949D01*
X148867716Y-92393113D01*
X148932212Y-92363435D01*
X149002514Y-92373338D01*
G37*
%TD.AperFunction*%
%TA.AperFunction,NonConductor*%
G36*
X150852012Y-93662877D02*
G01*
X150890497Y-93722949D01*
X150898642Y-93750986D01*
X150898643Y-93750988D01*
X150900855Y-93758601D01*
X150985547Y-93901807D01*
X150988229Y-93904489D01*
X151013502Y-93968861D01*
X150999600Y-94038484D01*
X150989428Y-94054312D01*
X150985547Y-94058193D01*
X150900855Y-94201399D01*
X150898644Y-94209010D01*
X150898643Y-94209012D01*
X150856233Y-94354989D01*
X150856232Y-94354993D01*
X150854438Y-94361169D01*
X150853933Y-94367580D01*
X150853789Y-94368371D01*
X150818935Y-94434825D01*
X150774263Y-94479497D01*
X150711951Y-94513523D01*
X150641136Y-94508458D01*
X150584300Y-94465911D01*
X150559489Y-94399391D01*
X150566766Y-94347310D01*
X150570618Y-94336726D01*
X150580533Y-94309486D01*
X150585491Y-94297748D01*
X150600625Y-94266443D01*
X150600626Y-94266440D01*
X150603691Y-94260100D01*
X150610948Y-94228666D01*
X150615318Y-94213914D01*
X150623941Y-94190223D01*
X150623941Y-94190222D01*
X150626350Y-94183604D01*
X150631590Y-94142126D01*
X150633825Y-94129575D01*
X150641648Y-94095689D01*
X150641648Y-94095687D01*
X150643232Y-94088827D01*
X150643268Y-94078708D01*
X150643370Y-94049500D01*
X150643398Y-94048663D01*
X150643500Y-94047850D01*
X150643500Y-94012104D01*
X150643846Y-93913052D01*
X150643585Y-93911884D01*
X150643500Y-93910316D01*
X150643500Y-93758101D01*
X150663502Y-93689980D01*
X150717158Y-93643487D01*
X150787432Y-93633383D01*
X150852012Y-93662877D01*
G37*
%TD.AperFunction*%
%TA.AperFunction,NonConductor*%
G36*
X161262012Y-94070554D02*
G01*
X161268595Y-94076683D01*
X161739595Y-94547683D01*
X161773621Y-94609995D01*
X161776500Y-94636778D01*
X161776500Y-96894274D01*
X161756498Y-96962395D01*
X161702842Y-97008888D01*
X161632568Y-97018992D01*
X161567988Y-96989498D01*
X161561405Y-96983369D01*
X160027662Y-95449626D01*
X159993636Y-95387314D01*
X159998701Y-95316499D01*
X160041248Y-95259663D01*
X160105337Y-95235050D01*
X160208456Y-95225665D01*
X160208458Y-95225665D01*
X160214596Y-95225106D01*
X160220502Y-95223368D01*
X160220506Y-95223367D01*
X160384705Y-95175040D01*
X160409029Y-95167881D01*
X160414486Y-95165028D01*
X160414489Y-95165027D01*
X160551765Y-95093261D01*
X160588645Y-95073981D01*
X160610344Y-95056535D01*
X160636596Y-95035427D01*
X160746601Y-94946981D01*
X160876881Y-94791719D01*
X160879845Y-94786327D01*
X160879848Y-94786323D01*
X160971556Y-94619506D01*
X160974523Y-94614109D01*
X161035807Y-94420916D01*
X161038222Y-94399391D01*
X161051105Y-94284536D01*
X161053500Y-94263183D01*
X161053500Y-94165778D01*
X161073502Y-94097657D01*
X161127158Y-94051164D01*
X161197432Y-94041060D01*
X161262012Y-94070554D01*
G37*
%TD.AperFunction*%
%TA.AperFunction,NonConductor*%
G36*
X173350869Y-92882916D02*
G01*
X173387097Y-92943974D01*
X173391011Y-92975135D01*
X173391011Y-99768763D01*
X173371009Y-99836884D01*
X173354106Y-99857858D01*
X172903843Y-100308121D01*
X172841531Y-100342147D01*
X172801578Y-100344336D01*
X172733380Y-100337168D01*
X172733377Y-100337168D01*
X172727250Y-100336524D01*
X172665466Y-100342147D01*
X172531543Y-100354335D01*
X172531540Y-100354336D01*
X172525404Y-100354894D01*
X172519498Y-100356632D01*
X172519494Y-100356633D01*
X172415084Y-100387363D01*
X172330971Y-100412119D01*
X172325514Y-100414972D01*
X172325511Y-100414973D01*
X172268019Y-100445029D01*
X172151540Y-100505923D01*
X172151538Y-100505923D01*
X172151355Y-100506019D01*
X172151337Y-100505984D01*
X172085559Y-100525889D01*
X172024591Y-100510729D01*
X172015815Y-100505984D01*
X171852435Y-100417644D01*
X171717747Y-100375951D01*
X171664707Y-100359532D01*
X171664704Y-100359531D01*
X171658820Y-100357710D01*
X171652695Y-100357066D01*
X171652694Y-100357066D01*
X171463378Y-100337168D01*
X171463377Y-100337168D01*
X171457250Y-100336524D01*
X171395466Y-100342147D01*
X171261543Y-100354335D01*
X171261540Y-100354336D01*
X171255404Y-100354894D01*
X171249498Y-100356632D01*
X171249494Y-100356633D01*
X171125075Y-100393252D01*
X171054079Y-100393297D01*
X170994328Y-100354951D01*
X170964794Y-100290389D01*
X170963500Y-100272378D01*
X170963500Y-94336726D01*
X170983502Y-94268605D01*
X171000405Y-94247631D01*
X172292604Y-92955432D01*
X172354916Y-92921406D01*
X172411115Y-92922009D01*
X172458471Y-92933379D01*
X172458480Y-92933380D01*
X172463289Y-92934535D01*
X172700000Y-92953165D01*
X172936711Y-92934535D01*
X172941518Y-92933381D01*
X172941524Y-92933380D01*
X173119651Y-92890615D01*
X173167594Y-92879105D01*
X173216794Y-92858726D01*
X173287382Y-92851137D01*
X173350869Y-92882916D01*
G37*
%TD.AperFunction*%
%TA.AperFunction,NonConductor*%
G36*
X149078863Y-95991543D02*
G01*
X149135699Y-96034090D01*
X149160510Y-96100610D01*
X149153233Y-96152691D01*
X149139469Y-96190510D01*
X149134506Y-96202259D01*
X149116309Y-96239901D01*
X149109051Y-96271340D01*
X149104685Y-96286076D01*
X149100127Y-96298601D01*
X149093650Y-96316396D01*
X149092767Y-96323382D01*
X149092767Y-96323384D01*
X149088410Y-96357875D01*
X149086175Y-96370427D01*
X149076768Y-96411173D01*
X149076743Y-96418213D01*
X149076743Y-96418216D01*
X149076630Y-96450500D01*
X149076602Y-96451337D01*
X149076500Y-96452150D01*
X149076500Y-96487896D01*
X149076154Y-96586949D01*
X149076415Y-96588117D01*
X149076500Y-96589685D01*
X149076500Y-100315020D01*
X149056498Y-100383141D01*
X149002842Y-100429634D01*
X148932568Y-100439738D01*
X148917893Y-100436728D01*
X148846671Y-100417644D01*
X148805970Y-100406738D01*
X148805968Y-100406738D01*
X148800655Y-100405314D01*
X148590000Y-100386884D01*
X148379345Y-100405314D01*
X148374032Y-100406738D01*
X148374030Y-100406738D01*
X148180400Y-100458621D01*
X148180398Y-100458622D01*
X148175090Y-100460044D01*
X148170109Y-100462366D01*
X148170108Y-100462367D01*
X147988423Y-100547088D01*
X147988420Y-100547090D01*
X147983442Y-100549411D01*
X147810224Y-100670699D01*
X147701328Y-100779595D01*
X147639016Y-100813621D01*
X147612233Y-100816500D01*
X144487767Y-100816500D01*
X144419646Y-100796498D01*
X144398672Y-100779595D01*
X144330405Y-100711328D01*
X144296379Y-100649016D01*
X144293500Y-100622233D01*
X144293500Y-98278522D01*
X144313502Y-98210401D01*
X144330405Y-98189427D01*
X145967691Y-96552141D01*
X146030003Y-96518115D01*
X146100818Y-96523180D01*
X146141209Y-96549138D01*
X146141325Y-96548989D01*
X146143009Y-96550295D01*
X146145881Y-96552141D01*
X146153193Y-96559453D01*
X146160017Y-96563489D01*
X146160020Y-96563491D01*
X146204312Y-96589685D01*
X146296399Y-96644145D01*
X146304010Y-96646356D01*
X146304012Y-96646357D01*
X146356231Y-96661528D01*
X146456169Y-96690562D01*
X146462574Y-96691066D01*
X146462579Y-96691067D01*
X146491042Y-96693307D01*
X146491050Y-96693307D01*
X146493498Y-96693500D01*
X148276502Y-96693500D01*
X148278950Y-96693307D01*
X148278958Y-96693307D01*
X148307421Y-96691067D01*
X148307426Y-96691066D01*
X148313831Y-96690562D01*
X148413769Y-96661528D01*
X148465988Y-96646357D01*
X148465990Y-96646356D01*
X148473601Y-96644145D01*
X148565688Y-96589685D01*
X148609980Y-96563491D01*
X148609983Y-96563489D01*
X148616807Y-96559453D01*
X148734453Y-96441807D01*
X148738489Y-96434983D01*
X148738491Y-96434980D01*
X148815108Y-96305427D01*
X148819145Y-96298601D01*
X148824886Y-96278840D01*
X148863767Y-96145011D01*
X148863768Y-96145007D01*
X148865562Y-96138831D01*
X148866067Y-96132420D01*
X148866211Y-96131629D01*
X148901065Y-96065175D01*
X148945736Y-96020504D01*
X149008048Y-95986478D01*
X149078863Y-95991543D01*
G37*
%TD.AperFunction*%
%TA.AperFunction,NonConductor*%
G36*
X158472012Y-96110502D02*
G01*
X158478595Y-96116631D01*
X164137880Y-101775916D01*
X164171906Y-101838228D01*
X164166841Y-101909043D01*
X164124294Y-101965879D01*
X164057774Y-101990690D01*
X164048785Y-101991011D01*
X160301237Y-101991011D01*
X160233116Y-101971009D01*
X160212142Y-101954106D01*
X159996208Y-101738172D01*
X159962182Y-101675860D01*
X159959783Y-101638095D01*
X159962636Y-101605486D01*
X159963116Y-101600000D01*
X159959783Y-101561905D01*
X159973771Y-101492300D01*
X159996208Y-101461828D01*
X160535546Y-100922490D01*
X160546722Y-100912567D01*
X160568079Y-100895761D01*
X160568080Y-100895760D01*
X160573618Y-100891402D01*
X160578641Y-100885199D01*
X160601993Y-100856363D01*
X160603821Y-100854215D01*
X160605273Y-100852763D01*
X160627648Y-100824736D01*
X160630397Y-100821292D01*
X160630948Y-100820607D01*
X160680168Y-100759825D01*
X160680171Y-100759821D01*
X160684238Y-100754798D01*
X160685460Y-100752315D01*
X160687188Y-100750150D01*
X160724073Y-100673850D01*
X160724444Y-100673087D01*
X160727174Y-100667540D01*
X160756143Y-100608667D01*
X160758984Y-100602893D01*
X160758985Y-100602891D01*
X160761844Y-100597080D01*
X160762484Y-100594392D01*
X160763691Y-100591896D01*
X160782783Y-100509199D01*
X160782941Y-100508523D01*
X160802580Y-100426088D01*
X160802609Y-100423322D01*
X160803232Y-100420623D01*
X160803258Y-100413319D01*
X160803445Y-100359532D01*
X160803528Y-100335849D01*
X160803533Y-100335082D01*
X160803587Y-100330000D01*
X160804422Y-100250321D01*
X160803836Y-100247612D01*
X160803846Y-100244848D01*
X160801894Y-100236112D01*
X160785377Y-100162226D01*
X160785188Y-100161366D01*
X160768643Y-100084842D01*
X160767275Y-100078514D01*
X160766105Y-100076005D01*
X160765501Y-100073303D01*
X160729187Y-99996826D01*
X160728812Y-99996030D01*
X160695724Y-99925071D01*
X160695723Y-99925070D01*
X160692989Y-99919206D01*
X160691290Y-99917016D01*
X160690104Y-99914518D01*
X160686101Y-99909431D01*
X160686098Y-99909426D01*
X160637769Y-99848010D01*
X160637228Y-99847318D01*
X160611552Y-99814217D01*
X160611543Y-99814207D01*
X160609123Y-99811087D01*
X160607662Y-99809626D01*
X160605869Y-99807474D01*
X160600956Y-99801231D01*
X160581402Y-99776382D01*
X160549811Y-99750800D01*
X160540011Y-99741975D01*
X158300405Y-97502369D01*
X158266379Y-97440057D01*
X158263500Y-97413274D01*
X158263500Y-96205726D01*
X158283502Y-96137605D01*
X158337158Y-96091112D01*
X158407432Y-96081008D01*
X158472012Y-96110502D01*
G37*
%TD.AperFunction*%
%TA.AperFunction,NonConductor*%
G36*
X171761115Y-84217009D02*
G01*
X171808471Y-84228379D01*
X171808480Y-84228380D01*
X171813289Y-84229535D01*
X172039204Y-84247315D01*
X172041208Y-84247473D01*
X172050000Y-84248165D01*
X172058793Y-84247473D01*
X172060796Y-84247315D01*
X172286711Y-84229535D01*
X172291520Y-84228380D01*
X172291529Y-84228379D01*
X172338885Y-84217009D01*
X172409793Y-84220555D01*
X172457394Y-84250430D01*
X173354108Y-85147145D01*
X173388132Y-85209455D01*
X173391011Y-85236238D01*
X173391011Y-89904865D01*
X173371009Y-89972986D01*
X173317353Y-90019479D01*
X173247079Y-90029583D01*
X173216795Y-90021274D01*
X173167594Y-90000895D01*
X173064994Y-89976263D01*
X172941524Y-89946620D01*
X172941518Y-89946619D01*
X172936711Y-89945465D01*
X172700000Y-89926835D01*
X172463289Y-89945465D01*
X172458482Y-89946619D01*
X172458476Y-89946620D01*
X172335006Y-89976263D01*
X172232406Y-90000895D01*
X172227835Y-90002788D01*
X172227833Y-90002789D01*
X172017611Y-90089865D01*
X172017607Y-90089867D01*
X172013037Y-90091760D01*
X172008817Y-90094346D01*
X171814798Y-90213241D01*
X171814792Y-90213245D01*
X171810584Y-90215824D01*
X171630031Y-90370031D01*
X171475824Y-90550584D01*
X171473245Y-90554792D01*
X171473241Y-90554798D01*
X171361228Y-90737586D01*
X171351760Y-90753037D01*
X171349867Y-90757607D01*
X171349865Y-90757611D01*
X171262789Y-90967833D01*
X171260895Y-90972406D01*
X171259740Y-90977218D01*
X171209925Y-91184712D01*
X171205465Y-91203289D01*
X171186835Y-91440000D01*
X171205465Y-91676711D01*
X171206620Y-91681520D01*
X171206621Y-91681529D01*
X171217991Y-91728885D01*
X171214445Y-91799793D01*
X171184568Y-91847396D01*
X169632383Y-93399581D01*
X169631445Y-93400510D01*
X169568989Y-93461671D01*
X169565172Y-93467593D01*
X169565170Y-93467596D01*
X169546335Y-93496822D01*
X169538907Y-93507161D01*
X169512812Y-93539850D01*
X169509746Y-93546192D01*
X169509743Y-93546197D01*
X169498773Y-93568890D01*
X169491247Y-93582302D01*
X169477586Y-93603500D01*
X169477584Y-93603505D01*
X169473769Y-93609424D01*
X169459469Y-93648715D01*
X169454506Y-93660463D01*
X169439927Y-93690622D01*
X169436309Y-93698105D01*
X169429051Y-93729544D01*
X169424685Y-93744280D01*
X169416207Y-93767575D01*
X169413650Y-93774600D01*
X169412767Y-93781586D01*
X169412767Y-93781588D01*
X169408410Y-93816079D01*
X169406175Y-93828631D01*
X169396768Y-93869377D01*
X169396743Y-93876417D01*
X169396743Y-93876420D01*
X169396630Y-93908704D01*
X169396602Y-93909541D01*
X169396500Y-93910354D01*
X169396500Y-93946100D01*
X169396154Y-94045153D01*
X169396415Y-94046321D01*
X169396500Y-94047889D01*
X169396500Y-100345198D01*
X169376498Y-100413319D01*
X169346065Y-100446024D01*
X169291739Y-100486739D01*
X169204385Y-100603295D01*
X169153255Y-100739684D01*
X169146500Y-100801866D01*
X169146500Y-102398134D01*
X169153255Y-102460316D01*
X169204385Y-102596705D01*
X169291739Y-102713261D01*
X169408295Y-102800615D01*
X169544684Y-102851745D01*
X169606866Y-102858500D01*
X170049274Y-102858500D01*
X170117395Y-102878502D01*
X170163888Y-102932158D01*
X170173992Y-103002432D01*
X170144498Y-103067012D01*
X170138369Y-103073595D01*
X169892369Y-103319595D01*
X169830057Y-103353621D01*
X169803274Y-103356500D01*
X167686736Y-103356500D01*
X167618615Y-103336498D01*
X167572122Y-103282842D01*
X167562018Y-103212568D01*
X167591512Y-103147988D01*
X167597641Y-103141405D01*
X168187617Y-102551429D01*
X168188555Y-102550500D01*
X168210203Y-102529301D01*
X168251011Y-102489339D01*
X168254828Y-102483417D01*
X168254830Y-102483414D01*
X168273665Y-102454188D01*
X168281093Y-102443849D01*
X168307188Y-102411160D01*
X168310254Y-102404818D01*
X168310257Y-102404813D01*
X168321227Y-102382120D01*
X168328753Y-102368708D01*
X168342414Y-102347510D01*
X168342416Y-102347505D01*
X168346231Y-102341586D01*
X168360533Y-102302291D01*
X168365494Y-102290547D01*
X168380624Y-102259250D01*
X168380625Y-102259247D01*
X168383691Y-102252905D01*
X168386785Y-102239506D01*
X168390948Y-102221471D01*
X168395315Y-102206728D01*
X168406350Y-102176410D01*
X168411591Y-102134922D01*
X168413828Y-102122367D01*
X168421648Y-102088498D01*
X168423233Y-102081633D01*
X168423370Y-102042295D01*
X168423398Y-102041464D01*
X168423500Y-102040656D01*
X168423500Y-102005072D01*
X168423846Y-101905857D01*
X168423585Y-101904689D01*
X168423500Y-101903120D01*
X168423500Y-93988952D01*
X168423507Y-93987632D01*
X168423745Y-93964887D01*
X168424422Y-93900321D01*
X168417732Y-93869377D01*
X168415586Y-93859454D01*
X168413525Y-93846871D01*
X168409649Y-93812318D01*
X168408864Y-93805318D01*
X168398251Y-93774841D01*
X168394092Y-93760042D01*
X168393781Y-93758601D01*
X168387275Y-93728514D01*
X168369598Y-93690605D01*
X168364816Y-93678829D01*
X168351057Y-93639319D01*
X168333962Y-93611961D01*
X168326623Y-93598444D01*
X168315964Y-93575585D01*
X168315962Y-93575582D01*
X168312989Y-93569206D01*
X168287360Y-93536165D01*
X168280071Y-93525717D01*
X168257909Y-93490251D01*
X168230181Y-93462328D01*
X168229627Y-93461736D01*
X168229123Y-93461087D01*
X168203971Y-93435935D01*
X168134051Y-93365525D01*
X168133041Y-93364884D01*
X168131862Y-93363826D01*
X166645405Y-91877369D01*
X166611379Y-91815057D01*
X166608500Y-91788274D01*
X166608500Y-90391866D01*
X166601745Y-90329684D01*
X166550615Y-90193295D01*
X166463261Y-90076739D01*
X166346705Y-89989385D01*
X166210316Y-89938255D01*
X166148134Y-89931500D01*
X164051866Y-89931500D01*
X163989684Y-89938255D01*
X163853295Y-89989385D01*
X163736739Y-90076739D01*
X163649385Y-90193295D01*
X163598255Y-90329684D01*
X163591500Y-90391866D01*
X163591500Y-92488134D01*
X163598255Y-92550316D01*
X163649385Y-92686705D01*
X163736739Y-92803261D01*
X163853295Y-92890615D01*
X163989684Y-92941745D01*
X164051866Y-92948500D01*
X165448274Y-92948500D01*
X165516395Y-92968502D01*
X165537369Y-92985405D01*
X166819595Y-94267632D01*
X166853621Y-94329944D01*
X166856500Y-94356727D01*
X166856500Y-100315020D01*
X166836498Y-100383141D01*
X166782842Y-100429634D01*
X166712568Y-100439738D01*
X166697893Y-100436728D01*
X166626671Y-100417644D01*
X166585970Y-100406738D01*
X166585968Y-100406738D01*
X166580655Y-100405314D01*
X166370000Y-100386884D01*
X166159345Y-100405314D01*
X166154032Y-100406738D01*
X166154030Y-100406738D01*
X165960400Y-100458621D01*
X165960398Y-100458622D01*
X165955090Y-100460044D01*
X165950109Y-100462366D01*
X165950108Y-100462367D01*
X165768423Y-100547088D01*
X165768420Y-100547090D01*
X165763442Y-100549411D01*
X165590224Y-100670699D01*
X165508572Y-100752351D01*
X165446264Y-100786374D01*
X165375448Y-100781310D01*
X165330385Y-100752349D01*
X163380405Y-98802369D01*
X163346379Y-98740057D01*
X163343500Y-98713274D01*
X163343500Y-94269004D01*
X163343507Y-94267684D01*
X163343916Y-94228666D01*
X163344422Y-94180373D01*
X163341267Y-94165778D01*
X163335586Y-94139506D01*
X163333525Y-94126923D01*
X163330242Y-94097657D01*
X163328864Y-94085369D01*
X163326546Y-94078714D01*
X163326545Y-94078708D01*
X163318256Y-94054905D01*
X163314093Y-94040096D01*
X163308764Y-94015450D01*
X163308763Y-94015446D01*
X163307275Y-94008565D01*
X163289598Y-93970656D01*
X163284816Y-93958880D01*
X163271057Y-93919370D01*
X163253962Y-93892012D01*
X163246623Y-93878495D01*
X163235964Y-93855636D01*
X163235962Y-93855633D01*
X163232989Y-93849257D01*
X163207360Y-93816216D01*
X163200071Y-93805768D01*
X163177909Y-93770302D01*
X163150181Y-93742379D01*
X163149627Y-93741787D01*
X163149123Y-93741138D01*
X163123971Y-93715986D01*
X163054051Y-93645576D01*
X163053041Y-93644935D01*
X163051862Y-93643877D01*
X155220368Y-85812383D01*
X155219439Y-85811445D01*
X155182542Y-85773767D01*
X155158278Y-85748989D01*
X155152356Y-85745172D01*
X155152353Y-85745170D01*
X155123127Y-85726335D01*
X155112788Y-85718907D01*
X155080099Y-85692812D01*
X155073757Y-85689746D01*
X155073752Y-85689743D01*
X155051059Y-85678773D01*
X155037647Y-85671247D01*
X155016449Y-85657586D01*
X155016444Y-85657584D01*
X155010525Y-85653769D01*
X154971230Y-85639467D01*
X154959486Y-85634506D01*
X154928193Y-85619378D01*
X154928191Y-85619377D01*
X154921844Y-85616309D01*
X154890405Y-85609051D01*
X154875669Y-85604685D01*
X154851969Y-85596059D01*
X154851965Y-85596058D01*
X154845349Y-85593650D01*
X154838363Y-85592767D01*
X154838361Y-85592767D01*
X154803870Y-85588410D01*
X154791318Y-85586175D01*
X154765541Y-85580224D01*
X154750572Y-85576768D01*
X154743532Y-85576743D01*
X154743529Y-85576743D01*
X154711245Y-85576630D01*
X154710408Y-85576602D01*
X154709595Y-85576500D01*
X154674002Y-85576500D01*
X154673562Y-85576499D01*
X154647235Y-85576407D01*
X154579184Y-85556167D01*
X154558580Y-85539503D01*
X154449776Y-85430699D01*
X154276558Y-85309411D01*
X154271580Y-85307090D01*
X154271577Y-85307088D01*
X154113136Y-85233206D01*
X154059851Y-85186289D01*
X154040390Y-85118011D01*
X154060932Y-85050051D01*
X154114955Y-85003986D01*
X154166386Y-84993011D01*
X170566488Y-84993011D01*
X170567809Y-84993018D01*
X170655167Y-84993933D01*
X170662052Y-84992444D01*
X170662055Y-84992444D01*
X170696034Y-84985097D01*
X170708617Y-84983036D01*
X170717104Y-84982084D01*
X170750171Y-84978375D01*
X170756826Y-84976057D01*
X170756832Y-84976056D01*
X170780635Y-84967767D01*
X170795444Y-84963604D01*
X170820090Y-84958275D01*
X170820094Y-84958274D01*
X170826975Y-84956786D01*
X170864884Y-84939109D01*
X170876660Y-84934327D01*
X170916170Y-84920568D01*
X170943528Y-84903473D01*
X170957045Y-84896134D01*
X170979904Y-84885475D01*
X170979907Y-84885473D01*
X170986283Y-84882500D01*
X171019323Y-84856871D01*
X171029772Y-84849582D01*
X171065238Y-84827420D01*
X171093153Y-84799700D01*
X171093756Y-84799135D01*
X171094402Y-84798634D01*
X171119557Y-84773480D01*
X171189964Y-84703562D01*
X171190606Y-84702551D01*
X171191659Y-84701377D01*
X171642604Y-84250432D01*
X171704916Y-84216406D01*
X171761115Y-84217009D01*
G37*
%TD.AperFunction*%
%TA.AperFunction,NonConductor*%
G36*
X145872339Y-94148502D02*
G01*
X145918832Y-94202158D01*
X145928936Y-94272432D01*
X145925215Y-94289652D01*
X145911539Y-94336726D01*
X145904438Y-94361169D01*
X145903933Y-94367581D01*
X145903789Y-94368371D01*
X145868935Y-94434825D01*
X142962383Y-97341377D01*
X142961445Y-97342306D01*
X142898989Y-97403467D01*
X142895172Y-97409389D01*
X142895170Y-97409392D01*
X142876335Y-97438618D01*
X142868907Y-97448957D01*
X142842812Y-97481646D01*
X142839746Y-97487988D01*
X142839743Y-97487993D01*
X142828773Y-97510686D01*
X142821247Y-97524098D01*
X142807586Y-97545296D01*
X142807584Y-97545301D01*
X142803769Y-97551220D01*
X142801360Y-97557840D01*
X142789469Y-97590511D01*
X142784506Y-97602259D01*
X142772239Y-97627635D01*
X142766309Y-97639901D01*
X142759051Y-97671340D01*
X142754685Y-97686076D01*
X142743650Y-97716396D01*
X142742767Y-97723382D01*
X142742767Y-97723384D01*
X142738410Y-97757875D01*
X142736175Y-97770427D01*
X142726768Y-97811173D01*
X142726743Y-97818213D01*
X142726743Y-97818216D01*
X142726630Y-97850500D01*
X142726602Y-97851337D01*
X142726500Y-97852150D01*
X142726500Y-97887896D01*
X142726154Y-97986949D01*
X142726415Y-97988117D01*
X142726500Y-97989685D01*
X142726500Y-100622233D01*
X142706498Y-100690354D01*
X142689595Y-100711328D01*
X142580699Y-100820224D01*
X142459411Y-100993442D01*
X142370044Y-101185090D01*
X142315314Y-101389345D01*
X142296884Y-101600000D01*
X142315314Y-101810655D01*
X142316738Y-101815968D01*
X142316738Y-101815970D01*
X142367449Y-102005224D01*
X142370044Y-102014910D01*
X142372366Y-102019891D01*
X142372367Y-102019892D01*
X142445353Y-102176410D01*
X142459411Y-102206558D01*
X142580699Y-102379776D01*
X142730224Y-102529301D01*
X142903442Y-102650589D01*
X142908420Y-102652910D01*
X142908423Y-102652912D01*
X143090108Y-102737633D01*
X143095090Y-102739956D01*
X143100398Y-102741378D01*
X143100400Y-102741379D01*
X143294030Y-102793262D01*
X143294032Y-102793262D01*
X143299345Y-102794686D01*
X143510000Y-102813116D01*
X143720655Y-102794686D01*
X143725968Y-102793262D01*
X143725970Y-102793262D01*
X143919600Y-102741379D01*
X143919602Y-102741378D01*
X143924910Y-102739956D01*
X143929892Y-102737633D01*
X144111577Y-102652912D01*
X144111580Y-102652910D01*
X144116558Y-102650589D01*
X144289776Y-102529301D01*
X144398672Y-102420405D01*
X144460984Y-102386379D01*
X144487767Y-102383500D01*
X147612233Y-102383500D01*
X147680354Y-102403502D01*
X147701328Y-102420405D01*
X147810224Y-102529301D01*
X147983442Y-102650589D01*
X147988420Y-102652910D01*
X147988423Y-102652912D01*
X148170108Y-102737633D01*
X148175090Y-102739956D01*
X148180398Y-102741378D01*
X148180400Y-102741379D01*
X148374030Y-102793262D01*
X148374032Y-102793262D01*
X148379345Y-102794686D01*
X148590000Y-102813116D01*
X148800655Y-102794686D01*
X148805968Y-102793262D01*
X148805970Y-102793262D01*
X148851178Y-102781149D01*
X148917890Y-102763273D01*
X148988865Y-102764963D01*
X149047661Y-102804757D01*
X149075609Y-102870021D01*
X149076500Y-102884980D01*
X149076500Y-103230500D01*
X149056498Y-103298621D01*
X149002842Y-103345114D01*
X148950500Y-103356500D01*
X138806726Y-103356500D01*
X138738605Y-103336498D01*
X138717631Y-103319595D01*
X137136208Y-101738172D01*
X137102182Y-101675860D01*
X137099783Y-101638095D01*
X137102636Y-101605486D01*
X137103116Y-101600000D01*
X137099783Y-101561905D01*
X137113771Y-101492300D01*
X137136208Y-101461828D01*
X140127617Y-98470419D01*
X140128555Y-98469490D01*
X140128663Y-98469384D01*
X140191011Y-98408329D01*
X140194828Y-98402407D01*
X140194830Y-98402404D01*
X140213665Y-98373178D01*
X140221093Y-98362839D01*
X140247188Y-98330150D01*
X140250254Y-98323808D01*
X140250257Y-98323803D01*
X140261227Y-98301110D01*
X140268753Y-98287698D01*
X140282414Y-98266500D01*
X140282416Y-98266495D01*
X140286231Y-98260576D01*
X140300533Y-98221281D01*
X140305494Y-98209537D01*
X140320622Y-98178244D01*
X140320623Y-98178242D01*
X140323691Y-98171895D01*
X140330949Y-98140456D01*
X140335315Y-98125720D01*
X140343941Y-98102020D01*
X140343942Y-98102016D01*
X140346350Y-98095400D01*
X140351590Y-98053921D01*
X140353825Y-98041369D01*
X140355496Y-98034130D01*
X140363232Y-98000623D01*
X140363271Y-97989685D01*
X140363370Y-97961296D01*
X140363398Y-97960459D01*
X140363500Y-97959646D01*
X140363500Y-97923900D01*
X140363543Y-97911561D01*
X140383782Y-97843510D01*
X140437599Y-97797205D01*
X140489542Y-97786000D01*
X140628134Y-97786000D01*
X140690316Y-97779245D01*
X140826705Y-97728115D01*
X140943261Y-97640761D01*
X141030615Y-97524205D01*
X141081745Y-97387816D01*
X141088500Y-97325634D01*
X141088500Y-95929226D01*
X141108502Y-95861105D01*
X141125405Y-95840131D01*
X142800132Y-94165405D01*
X142862444Y-94131379D01*
X142889227Y-94128500D01*
X145804218Y-94128500D01*
X145872339Y-94148502D01*
G37*
%TD.AperFunction*%
%TA.AperFunction,NonConductor*%
G36*
X157529600Y-101900580D02*
G01*
X157584347Y-101945783D01*
X157601707Y-101983796D01*
X157607449Y-102005224D01*
X157610044Y-102014910D01*
X157612366Y-102019891D01*
X157612367Y-102019892D01*
X157685353Y-102176410D01*
X157699411Y-102206558D01*
X157820699Y-102379776D01*
X157970224Y-102529301D01*
X158143442Y-102650589D01*
X158148420Y-102652910D01*
X158148423Y-102652912D01*
X158330108Y-102737633D01*
X158335090Y-102739956D01*
X158340398Y-102741378D01*
X158340400Y-102741379D01*
X158534030Y-102793262D01*
X158534032Y-102793262D01*
X158539345Y-102794686D01*
X158653371Y-102804662D01*
X158744522Y-102812637D01*
X158744525Y-102812637D01*
X158750000Y-102813116D01*
X158788094Y-102809783D01*
X158857699Y-102823771D01*
X158888172Y-102846208D01*
X159183368Y-103141405D01*
X159217393Y-103203717D01*
X159212328Y-103274533D01*
X159169781Y-103331368D01*
X159103261Y-103356179D01*
X159094272Y-103356500D01*
X157119500Y-103356500D01*
X157051379Y-103336498D01*
X157004886Y-103282842D01*
X156993500Y-103230500D01*
X156993500Y-102577767D01*
X157013502Y-102509646D01*
X157030405Y-102488672D01*
X157139301Y-102379776D01*
X157260589Y-102206558D01*
X157274648Y-102176410D01*
X157347633Y-102019892D01*
X157347634Y-102019891D01*
X157349956Y-102014910D01*
X157352552Y-102005224D01*
X157358293Y-101983796D01*
X157395245Y-101923173D01*
X157459106Y-101892152D01*
X157529600Y-101900580D01*
G37*
%TD.AperFunction*%
%TA.AperFunction,NonConductor*%
G36*
X176958621Y-82063991D02*
G01*
X177005114Y-82117647D01*
X177016500Y-82169989D01*
X177016500Y-103763274D01*
X176996498Y-103831395D01*
X176979595Y-103852369D01*
X174972369Y-105859595D01*
X174910057Y-105893621D01*
X174883274Y-105896500D01*
X155316726Y-105896500D01*
X155248605Y-105876498D01*
X155227631Y-105859595D01*
X153155405Y-103787369D01*
X153121379Y-103725057D01*
X153118500Y-103698274D01*
X153118500Y-96818474D01*
X153138502Y-96750353D01*
X153192158Y-96703860D01*
X153234612Y-96692863D01*
X153257411Y-96691068D01*
X153257418Y-96691067D01*
X153263831Y-96690562D01*
X153363769Y-96661528D01*
X153415988Y-96646357D01*
X153415990Y-96646356D01*
X153423601Y-96644145D01*
X153515688Y-96589685D01*
X153559980Y-96563491D01*
X153559983Y-96563489D01*
X153566807Y-96559453D01*
X153684453Y-96441807D01*
X153688489Y-96434983D01*
X153688491Y-96434980D01*
X153765108Y-96305427D01*
X153769145Y-96298601D01*
X153775276Y-96277500D01*
X153796127Y-96205726D01*
X153815562Y-96138831D01*
X153817310Y-96116631D01*
X153818307Y-96103958D01*
X153818307Y-96103950D01*
X153818500Y-96101502D01*
X153818500Y-95668498D01*
X153815562Y-95631169D01*
X153769145Y-95471399D01*
X153684453Y-95328193D01*
X153681771Y-95325511D01*
X153656498Y-95261139D01*
X153670400Y-95191516D01*
X153680572Y-95175688D01*
X153684453Y-95171807D01*
X153769145Y-95028601D01*
X153815562Y-94868831D01*
X153817807Y-94840316D01*
X153818307Y-94833958D01*
X153818307Y-94833950D01*
X153818500Y-94831502D01*
X153818500Y-94398498D01*
X153818307Y-94396042D01*
X153816067Y-94367579D01*
X153816066Y-94367574D01*
X153815562Y-94361169D01*
X153786071Y-94259659D01*
X153771357Y-94209012D01*
X153771356Y-94209010D01*
X153769145Y-94201399D01*
X153684453Y-94058193D01*
X153681771Y-94055511D01*
X153656498Y-93991139D01*
X153670400Y-93921516D01*
X153680572Y-93905688D01*
X153684453Y-93901807D01*
X153769145Y-93758601D01*
X153771358Y-93750986D01*
X153788565Y-93691756D01*
X153815562Y-93598831D01*
X153817373Y-93575831D01*
X153818307Y-93563958D01*
X153818307Y-93563950D01*
X153818500Y-93561502D01*
X153818500Y-93128498D01*
X153818307Y-93126042D01*
X153816067Y-93097579D01*
X153816066Y-93097574D01*
X153815562Y-93091169D01*
X153802589Y-93046513D01*
X153794785Y-93019652D01*
X153794988Y-92948656D01*
X153833542Y-92889040D01*
X153898207Y-92859732D01*
X153915782Y-92858500D01*
X156369370Y-92858500D01*
X156437491Y-92878502D01*
X156483984Y-92932158D01*
X156494088Y-93002432D01*
X156487352Y-93028729D01*
X156456029Y-93112282D01*
X156456027Y-93112288D01*
X156453255Y-93119684D01*
X156446500Y-93181866D01*
X156446500Y-94778134D01*
X156453255Y-94840316D01*
X156504385Y-94976705D01*
X156591739Y-95093261D01*
X156598919Y-95098642D01*
X156646065Y-95133976D01*
X156688580Y-95190835D01*
X156696500Y-95234802D01*
X156696500Y-97780999D01*
X156696493Y-97782319D01*
X156695578Y-97869678D01*
X156697067Y-97876563D01*
X156697067Y-97876566D01*
X156704414Y-97910545D01*
X156706475Y-97923128D01*
X156711136Y-97964682D01*
X156713454Y-97971337D01*
X156713455Y-97971343D01*
X156721744Y-97995146D01*
X156725907Y-98009955D01*
X156731236Y-98034601D01*
X156732725Y-98041486D01*
X156750402Y-98079395D01*
X156755184Y-98091171D01*
X156768943Y-98130681D01*
X156786037Y-98158037D01*
X156793377Y-98171556D01*
X156801711Y-98189427D01*
X156807011Y-98200794D01*
X156811324Y-98206354D01*
X156811325Y-98206356D01*
X156832640Y-98233835D01*
X156839929Y-98244283D01*
X156862091Y-98279749D01*
X156883303Y-98301110D01*
X156889819Y-98307672D01*
X156890373Y-98308264D01*
X156890877Y-98308913D01*
X156916031Y-98334067D01*
X156985949Y-98404475D01*
X156986959Y-98405116D01*
X156988138Y-98406174D01*
X158760176Y-100178212D01*
X158794202Y-100240524D01*
X158789137Y-100311339D01*
X158746590Y-100368175D01*
X158682063Y-100392828D01*
X158653371Y-100395338D01*
X158544826Y-100404834D01*
X158544821Y-100404835D01*
X158539345Y-100405314D01*
X158534032Y-100406738D01*
X158534030Y-100406738D01*
X158340400Y-100458621D01*
X158340398Y-100458622D01*
X158335090Y-100460044D01*
X158330109Y-100462366D01*
X158330108Y-100462367D01*
X158148423Y-100547088D01*
X158148420Y-100547090D01*
X158143442Y-100549411D01*
X157970224Y-100670699D01*
X157820699Y-100820224D01*
X157699411Y-100993442D01*
X157610044Y-101185090D01*
X157608622Y-101190398D01*
X157608621Y-101190400D01*
X157601707Y-101216204D01*
X157564755Y-101276827D01*
X157500894Y-101307848D01*
X157430400Y-101299420D01*
X157375653Y-101254217D01*
X157358293Y-101216204D01*
X157351379Y-101190400D01*
X157351378Y-101190398D01*
X157349956Y-101185090D01*
X157260589Y-100993442D01*
X157139301Y-100820224D01*
X156989776Y-100670699D01*
X156816558Y-100549411D01*
X156811580Y-100547090D01*
X156811577Y-100547088D01*
X156629892Y-100462367D01*
X156629891Y-100462366D01*
X156624910Y-100460044D01*
X156619602Y-100458622D01*
X156619600Y-100458621D01*
X156425970Y-100406738D01*
X156425968Y-100406738D01*
X156420655Y-100405314D01*
X156210000Y-100386884D01*
X155999345Y-100405314D01*
X155994032Y-100406738D01*
X155994030Y-100406738D01*
X155800400Y-100458621D01*
X155800398Y-100458622D01*
X155795090Y-100460044D01*
X155790109Y-100462366D01*
X155790108Y-100462367D01*
X155608423Y-100547088D01*
X155608420Y-100547090D01*
X155603442Y-100549411D01*
X155430224Y-100670699D01*
X155280699Y-100820224D01*
X155159411Y-100993442D01*
X155070044Y-101185090D01*
X155015314Y-101389345D01*
X154996884Y-101600000D01*
X155015314Y-101810655D01*
X155016738Y-101815968D01*
X155016738Y-101815970D01*
X155067449Y-102005224D01*
X155070044Y-102014910D01*
X155072366Y-102019891D01*
X155072367Y-102019892D01*
X155145353Y-102176410D01*
X155159411Y-102206558D01*
X155280699Y-102379776D01*
X155389595Y-102488672D01*
X155423621Y-102550984D01*
X155426500Y-102577767D01*
X155426500Y-104085588D01*
X155425614Y-104100507D01*
X155421561Y-104134496D01*
X155423601Y-104153900D01*
X155426275Y-104179342D01*
X155426500Y-104182142D01*
X155426500Y-104184201D01*
X155426893Y-104187704D01*
X155430978Y-104224133D01*
X155431073Y-104225003D01*
X155435947Y-104271371D01*
X155439935Y-104309310D01*
X155440827Y-104311932D01*
X155441136Y-104314682D01*
X155443254Y-104320765D01*
X155443255Y-104320768D01*
X155468966Y-104394599D01*
X155469240Y-104395391D01*
X155496582Y-104475709D01*
X155498033Y-104478067D01*
X155498943Y-104480681D01*
X155502374Y-104486171D01*
X155502375Y-104486174D01*
X155503653Y-104488219D01*
X155526121Y-104524174D01*
X155543821Y-104552500D01*
X155544231Y-104553160D01*
X155588687Y-104625423D01*
X155590623Y-104627400D01*
X155592091Y-104629749D01*
X155596651Y-104634341D01*
X155651803Y-104689879D01*
X155652421Y-104690506D01*
X155711671Y-104751011D01*
X155713999Y-104752511D01*
X155715949Y-104754475D01*
X155746190Y-104773666D01*
X155787563Y-104799922D01*
X155788092Y-104800260D01*
X155859424Y-104846231D01*
X155862027Y-104847178D01*
X155864363Y-104848661D01*
X155911628Y-104865491D01*
X155944151Y-104877072D01*
X155944979Y-104877370D01*
X156018530Y-104904141D01*
X156018533Y-104904142D01*
X156024600Y-104906350D01*
X156027346Y-104906697D01*
X156029955Y-104907626D01*
X156036375Y-104908392D01*
X156036377Y-104908392D01*
X156114115Y-104917662D01*
X156114986Y-104917769D01*
X156156424Y-104923004D01*
X156156431Y-104923004D01*
X156160354Y-104923500D01*
X156162421Y-104923500D01*
X156165190Y-104923752D01*
X156168863Y-104924190D01*
X156204496Y-104928439D01*
X156211499Y-104927703D01*
X156211500Y-104927703D01*
X156244922Y-104924190D01*
X156258093Y-104923500D01*
X170170999Y-104923500D01*
X170172320Y-104923507D01*
X170259678Y-104924422D01*
X170266563Y-104922933D01*
X170266566Y-104922933D01*
X170300545Y-104915586D01*
X170313128Y-104913525D01*
X170323237Y-104912391D01*
X170354682Y-104908864D01*
X170361337Y-104906546D01*
X170361343Y-104906545D01*
X170385146Y-104898256D01*
X170399955Y-104894093D01*
X170424601Y-104888764D01*
X170424605Y-104888763D01*
X170431486Y-104887275D01*
X170469395Y-104869598D01*
X170481171Y-104864816D01*
X170520681Y-104851057D01*
X170548039Y-104833962D01*
X170561556Y-104826623D01*
X170584415Y-104815964D01*
X170584418Y-104815962D01*
X170590794Y-104812989D01*
X170599574Y-104806179D01*
X170623835Y-104787360D01*
X170634283Y-104780071D01*
X170669749Y-104757909D01*
X170697672Y-104730181D01*
X170698264Y-104729627D01*
X170698913Y-104729123D01*
X170724065Y-104703971D01*
X170794475Y-104634051D01*
X170795116Y-104633041D01*
X170796174Y-104631862D01*
X171997617Y-103430419D01*
X171998555Y-103429490D01*
X171998663Y-103429384D01*
X172061011Y-103368329D01*
X172064828Y-103362407D01*
X172064830Y-103362404D01*
X172083665Y-103333178D01*
X172091093Y-103322839D01*
X172117188Y-103290150D01*
X172120254Y-103283808D01*
X172120257Y-103283803D01*
X172131227Y-103261110D01*
X172138753Y-103247698D01*
X172152414Y-103226500D01*
X172152416Y-103226495D01*
X172156231Y-103220576D01*
X172158639Y-103213960D01*
X172158641Y-103213956D01*
X172170530Y-103181288D01*
X172175493Y-103169540D01*
X172190625Y-103138239D01*
X172190626Y-103138236D01*
X172193691Y-103131896D01*
X172200948Y-103100462D01*
X172205318Y-103085710D01*
X172213941Y-103062019D01*
X172213941Y-103062018D01*
X172216350Y-103055400D01*
X172221590Y-103013922D01*
X172223825Y-103001371D01*
X172231648Y-102967485D01*
X172231648Y-102967483D01*
X172233232Y-102960623D01*
X172233351Y-102926746D01*
X172253592Y-102858696D01*
X172307411Y-102812392D01*
X172377720Y-102802535D01*
X172396603Y-102806822D01*
X172511180Y-102842290D01*
X172517305Y-102842934D01*
X172517306Y-102842934D01*
X172706622Y-102862832D01*
X172706623Y-102862832D01*
X172712750Y-102863476D01*
X172796014Y-102855898D01*
X172908457Y-102845665D01*
X172908460Y-102845664D01*
X172914596Y-102845106D01*
X172920502Y-102843368D01*
X172920506Y-102843367D01*
X173084280Y-102795165D01*
X173109029Y-102787881D01*
X173114486Y-102785028D01*
X173114489Y-102785027D01*
X173264558Y-102706573D01*
X173288645Y-102693981D01*
X173446601Y-102566981D01*
X173576881Y-102411719D01*
X173579845Y-102406327D01*
X173579848Y-102406323D01*
X173671556Y-102239506D01*
X173674523Y-102234109D01*
X173735807Y-102040916D01*
X173738166Y-102019892D01*
X173744810Y-101960652D01*
X173753500Y-101883183D01*
X173753500Y-101726726D01*
X173773502Y-101658605D01*
X173790405Y-101637631D01*
X174722128Y-100705908D01*
X174723066Y-100704979D01*
X174723174Y-100704873D01*
X174785522Y-100643818D01*
X174789339Y-100637896D01*
X174789341Y-100637893D01*
X174808176Y-100608667D01*
X174815604Y-100598328D01*
X174841699Y-100565639D01*
X174844765Y-100559297D01*
X174844768Y-100559292D01*
X174855738Y-100536599D01*
X174863264Y-100523187D01*
X174876925Y-100501989D01*
X174876927Y-100501984D01*
X174880742Y-100496065D01*
X174883150Y-100489449D01*
X174883152Y-100489445D01*
X174895041Y-100456777D01*
X174900004Y-100445029D01*
X174915136Y-100413728D01*
X174915137Y-100413725D01*
X174918202Y-100407385D01*
X174925459Y-100375951D01*
X174929829Y-100361199D01*
X174938452Y-100337508D01*
X174938452Y-100337507D01*
X174940861Y-100330889D01*
X174946101Y-100289411D01*
X174948336Y-100276860D01*
X174956159Y-100242974D01*
X174956159Y-100242972D01*
X174957743Y-100236112D01*
X174957881Y-100196785D01*
X174957909Y-100195948D01*
X174958011Y-100195135D01*
X174958011Y-100159389D01*
X174958357Y-100060337D01*
X174958096Y-100059169D01*
X174958011Y-100057601D01*
X174958011Y-84868464D01*
X174958018Y-84867144D01*
X174958859Y-84786879D01*
X174958933Y-84779833D01*
X174950097Y-84738966D01*
X174948036Y-84726383D01*
X174947084Y-84717896D01*
X174943375Y-84684829D01*
X174941057Y-84678174D01*
X174941056Y-84678168D01*
X174932767Y-84654365D01*
X174928604Y-84639556D01*
X174923275Y-84614910D01*
X174923274Y-84614906D01*
X174921786Y-84608025D01*
X174904109Y-84570116D01*
X174899327Y-84558340D01*
X174885568Y-84518830D01*
X174868473Y-84491472D01*
X174861134Y-84477955D01*
X174850475Y-84455096D01*
X174850473Y-84455093D01*
X174847500Y-84448717D01*
X174835580Y-84433349D01*
X174821871Y-84415676D01*
X174814582Y-84405228D01*
X174792420Y-84369762D01*
X174764692Y-84341839D01*
X174764138Y-84341247D01*
X174763634Y-84340598D01*
X174738482Y-84315446D01*
X174668562Y-84245036D01*
X174667552Y-84244395D01*
X174666373Y-84243337D01*
X173565432Y-83142396D01*
X173531406Y-83080084D01*
X173532009Y-83023885D01*
X173543379Y-82976529D01*
X173543380Y-82976520D01*
X173544535Y-82971711D01*
X173563165Y-82735000D01*
X173544535Y-82498289D01*
X173539216Y-82476131D01*
X173498842Y-82307963D01*
X173489105Y-82267406D01*
X173482310Y-82251000D01*
X173473529Y-82229802D01*
X173468726Y-82218206D01*
X173461137Y-82147618D01*
X173492916Y-82084131D01*
X173553974Y-82047903D01*
X173585135Y-82043989D01*
X176890500Y-82043989D01*
X176958621Y-82063991D01*
G37*
%TD.AperFunction*%
%TA.AperFunction,NonConductor*%
G36*
X187902121Y-71140002D02*
G01*
X187948614Y-71193658D01*
X187960000Y-71246000D01*
X187960000Y-114174000D01*
X187939998Y-114242121D01*
X187886342Y-114288614D01*
X187834000Y-114300000D01*
X114426000Y-114300000D01*
X114357879Y-114279998D01*
X114311386Y-114226342D01*
X114300000Y-114174000D01*
X114300000Y-96277500D01*
X123066835Y-96277500D01*
X123085465Y-96514211D01*
X123086619Y-96519018D01*
X123086620Y-96519024D01*
X123115690Y-96640108D01*
X123140895Y-96745094D01*
X123142788Y-96749665D01*
X123142789Y-96749667D01*
X123225972Y-96950489D01*
X123231760Y-96964463D01*
X123234346Y-96968683D01*
X123353241Y-97162702D01*
X123353245Y-97162708D01*
X123355824Y-97166916D01*
X123510031Y-97347469D01*
X123690584Y-97501676D01*
X123694792Y-97504255D01*
X123694798Y-97504259D01*
X123888817Y-97623154D01*
X123893037Y-97625740D01*
X123897607Y-97627633D01*
X123897611Y-97627635D01*
X124095919Y-97709776D01*
X124112406Y-97716605D01*
X124140643Y-97723384D01*
X124338476Y-97770880D01*
X124338482Y-97770881D01*
X124343289Y-97772035D01*
X124580000Y-97790665D01*
X124816711Y-97772035D01*
X124821518Y-97770881D01*
X124821524Y-97770880D01*
X125019357Y-97723384D01*
X125047594Y-97716605D01*
X125064081Y-97709776D01*
X125262389Y-97627635D01*
X125262393Y-97627633D01*
X125266963Y-97625740D01*
X125271183Y-97623154D01*
X125465202Y-97504259D01*
X125465208Y-97504255D01*
X125469416Y-97501676D01*
X125649969Y-97347469D01*
X125804176Y-97166916D01*
X125832213Y-97121164D01*
X125884861Y-97073533D01*
X125939645Y-97061000D01*
X134853499Y-97061000D01*
X134854820Y-97061007D01*
X134942178Y-97061922D01*
X134949063Y-97060433D01*
X134949066Y-97060433D01*
X134983045Y-97053086D01*
X134995628Y-97051025D01*
X135004115Y-97050073D01*
X135037182Y-97046364D01*
X135043837Y-97044046D01*
X135043843Y-97044045D01*
X135067646Y-97035756D01*
X135082455Y-97031593D01*
X135107101Y-97026264D01*
X135107105Y-97026263D01*
X135113986Y-97024775D01*
X135151895Y-97007098D01*
X135163671Y-97002316D01*
X135203181Y-96988557D01*
X135230539Y-96971462D01*
X135244056Y-96964123D01*
X135266915Y-96953464D01*
X135266918Y-96953462D01*
X135273294Y-96950489D01*
X135306334Y-96924860D01*
X135316783Y-96917571D01*
X135352249Y-96895409D01*
X135380172Y-96867681D01*
X135380764Y-96867127D01*
X135381413Y-96866623D01*
X135406565Y-96841471D01*
X135476975Y-96771551D01*
X135477616Y-96770541D01*
X135478674Y-96769362D01*
X142527631Y-89720405D01*
X142589943Y-89686379D01*
X142616726Y-89683500D01*
X145072233Y-89683500D01*
X145140354Y-89703502D01*
X145161328Y-89720405D01*
X145270224Y-89829301D01*
X145443442Y-89950589D01*
X145448420Y-89952910D01*
X145448423Y-89952912D01*
X145551323Y-90000895D01*
X145635090Y-90039956D01*
X145640398Y-90041378D01*
X145640400Y-90041379D01*
X145834030Y-90093262D01*
X145834032Y-90093262D01*
X145839345Y-90094686D01*
X146050000Y-90113116D01*
X146260655Y-90094686D01*
X146265968Y-90093262D01*
X146265970Y-90093262D01*
X146442889Y-90045857D01*
X146513866Y-90047547D01*
X146572661Y-90087341D01*
X146600609Y-90152606D01*
X146601500Y-90167564D01*
X146601500Y-91141526D01*
X146581498Y-91209647D01*
X146527842Y-91256140D01*
X146485388Y-91267137D01*
X146462589Y-91268932D01*
X146462582Y-91268933D01*
X146456169Y-91269438D01*
X146356231Y-91298472D01*
X146304012Y-91313643D01*
X146304010Y-91313644D01*
X146296399Y-91315855D01*
X146289572Y-91319892D01*
X146289573Y-91319892D01*
X146160020Y-91396509D01*
X146160017Y-91396511D01*
X146153193Y-91400547D01*
X146035547Y-91518193D01*
X146031511Y-91525017D01*
X146031509Y-91525020D01*
X145967893Y-91632589D01*
X145950855Y-91661399D01*
X145948644Y-91669010D01*
X145948643Y-91669012D01*
X145947840Y-91671777D01*
X145904438Y-91821169D01*
X145903934Y-91827574D01*
X145903933Y-91827579D01*
X145901693Y-91856042D01*
X145901500Y-91858498D01*
X145901500Y-92291502D01*
X145904438Y-92328831D01*
X145906232Y-92335007D01*
X145906233Y-92335011D01*
X145925215Y-92400348D01*
X145925012Y-92471344D01*
X145886458Y-92530960D01*
X145821793Y-92560268D01*
X145804218Y-92561500D01*
X142521453Y-92561500D01*
X142520133Y-92561493D01*
X142432822Y-92560578D01*
X142425937Y-92562067D01*
X142425934Y-92562067D01*
X142391955Y-92569414D01*
X142379372Y-92571475D01*
X142370885Y-92572427D01*
X142337818Y-92576136D01*
X142331163Y-92578454D01*
X142331157Y-92578455D01*
X142307354Y-92586744D01*
X142292545Y-92590907D01*
X142267899Y-92596236D01*
X142267895Y-92596237D01*
X142261014Y-92597725D01*
X142223105Y-92615402D01*
X142211329Y-92620184D01*
X142171819Y-92633943D01*
X142144463Y-92651037D01*
X142130944Y-92658377D01*
X142108085Y-92669036D01*
X142108082Y-92669038D01*
X142101706Y-92672011D01*
X142096146Y-92676324D01*
X142096144Y-92676325D01*
X142068665Y-92697640D01*
X142058217Y-92704929D01*
X142022751Y-92727091D01*
X141995904Y-92753750D01*
X141994828Y-92754819D01*
X141994236Y-92755373D01*
X141993587Y-92755877D01*
X141968435Y-92781029D01*
X141898025Y-92850949D01*
X141897384Y-92851959D01*
X141896326Y-92853138D01*
X140017369Y-94732095D01*
X139955057Y-94766121D01*
X139928274Y-94769000D01*
X138531866Y-94769000D01*
X138469684Y-94775755D01*
X138333295Y-94826885D01*
X138216739Y-94914239D01*
X138129385Y-95030795D01*
X138078255Y-95167184D01*
X138071500Y-95229366D01*
X138071500Y-97325634D01*
X138078255Y-97387816D01*
X138129385Y-97524205D01*
X138216739Y-97640761D01*
X138333295Y-97728115D01*
X138341704Y-97731267D01*
X138341705Y-97731268D01*
X138383198Y-97746823D01*
X138439963Y-97789464D01*
X138464663Y-97856026D01*
X138449456Y-97925375D01*
X138428064Y-97953900D01*
X136028172Y-100353792D01*
X135965860Y-100387818D01*
X135928095Y-100390217D01*
X135890000Y-100386884D01*
X135884525Y-100387363D01*
X135884522Y-100387363D01*
X135816699Y-100393297D01*
X135679345Y-100405314D01*
X135674032Y-100406738D01*
X135674030Y-100406738D01*
X135480400Y-100458621D01*
X135480398Y-100458622D01*
X135475090Y-100460044D01*
X135470109Y-100462366D01*
X135470108Y-100462367D01*
X135288423Y-100547088D01*
X135288420Y-100547090D01*
X135283442Y-100549411D01*
X135110224Y-100670699D01*
X134960699Y-100820224D01*
X134839411Y-100993442D01*
X134750044Y-101185090D01*
X134695314Y-101389345D01*
X134676884Y-101600000D01*
X134695314Y-101810655D01*
X134696738Y-101815968D01*
X134696738Y-101815970D01*
X134747449Y-102005224D01*
X134750044Y-102014910D01*
X134752366Y-102019891D01*
X134752367Y-102019892D01*
X134825353Y-102176410D01*
X134839411Y-102206558D01*
X134960699Y-102379776D01*
X135110224Y-102529301D01*
X135283442Y-102650589D01*
X135288420Y-102652910D01*
X135288423Y-102652912D01*
X135470108Y-102737633D01*
X135475090Y-102739956D01*
X135480398Y-102741378D01*
X135480400Y-102741379D01*
X135674030Y-102793262D01*
X135674032Y-102793262D01*
X135679345Y-102794686D01*
X135793371Y-102804662D01*
X135884522Y-102812637D01*
X135884525Y-102812637D01*
X135890000Y-102813116D01*
X135928095Y-102809783D01*
X135997700Y-102823771D01*
X136028172Y-102846208D01*
X136969332Y-103787369D01*
X137869627Y-104687664D01*
X137870556Y-104688602D01*
X137931671Y-104751011D01*
X137937591Y-104754826D01*
X137937592Y-104754827D01*
X137966824Y-104773666D01*
X137977175Y-104781104D01*
X138004345Y-104802793D01*
X138004348Y-104802795D01*
X138009850Y-104807187D01*
X138016192Y-104810253D01*
X138038893Y-104821228D01*
X138052303Y-104828754D01*
X138073496Y-104842411D01*
X138079424Y-104846231D01*
X138118725Y-104860535D01*
X138130456Y-104865491D01*
X138161761Y-104880625D01*
X138161764Y-104880626D01*
X138168104Y-104883691D01*
X138190078Y-104888764D01*
X138199538Y-104890948D01*
X138214290Y-104895318D01*
X138215395Y-104895720D01*
X138244600Y-104906350D01*
X138260764Y-104908392D01*
X138286078Y-104911590D01*
X138298629Y-104913825D01*
X138332515Y-104921648D01*
X138332517Y-104921648D01*
X138339377Y-104923232D01*
X138346417Y-104923257D01*
X138346420Y-104923257D01*
X138378704Y-104923370D01*
X138379541Y-104923398D01*
X138380354Y-104923500D01*
X138415946Y-104923500D01*
X138416387Y-104923501D01*
X138515152Y-104923846D01*
X138516320Y-104923585D01*
X138517888Y-104923500D01*
X149805588Y-104923500D01*
X149820507Y-104924386D01*
X149854496Y-104928439D01*
X149899360Y-104923724D01*
X149902142Y-104923500D01*
X149904201Y-104923500D01*
X149912256Y-104922597D01*
X149944133Y-104919022D01*
X149945003Y-104918927D01*
X149999014Y-104913249D01*
X150029310Y-104910065D01*
X150031932Y-104909173D01*
X150034682Y-104908864D01*
X150040765Y-104906746D01*
X150040768Y-104906745D01*
X150114599Y-104881034D01*
X150115391Y-104880760D01*
X150195709Y-104853418D01*
X150198067Y-104851967D01*
X150200681Y-104851057D01*
X150206171Y-104847626D01*
X150206174Y-104847625D01*
X150237923Y-104827786D01*
X150272599Y-104806118D01*
X150273160Y-104805769D01*
X150345423Y-104761313D01*
X150347400Y-104759377D01*
X150349749Y-104757909D01*
X150409879Y-104698197D01*
X150410506Y-104697579D01*
X150466384Y-104642860D01*
X150471011Y-104638329D01*
X150472511Y-104636001D01*
X150474475Y-104634051D01*
X150519953Y-104562388D01*
X150520260Y-104561908D01*
X150566231Y-104490576D01*
X150567178Y-104487973D01*
X150568661Y-104485637D01*
X150597072Y-104405849D01*
X150597370Y-104405021D01*
X150624141Y-104331470D01*
X150624142Y-104331467D01*
X150626350Y-104325400D01*
X150626697Y-104322654D01*
X150627626Y-104320045D01*
X150628563Y-104312192D01*
X150637662Y-104235885D01*
X150637769Y-104235014D01*
X150643004Y-104193576D01*
X150643004Y-104193569D01*
X150643500Y-104189646D01*
X150643500Y-104187579D01*
X150643752Y-104184810D01*
X150647605Y-104152497D01*
X150648439Y-104145504D01*
X150644190Y-104105078D01*
X150643500Y-104091907D01*
X150643500Y-96878522D01*
X150663502Y-96810401D01*
X150680405Y-96789427D01*
X150917691Y-96552141D01*
X150980003Y-96518115D01*
X151050818Y-96523180D01*
X151091209Y-96549138D01*
X151091325Y-96548989D01*
X151093009Y-96550295D01*
X151095881Y-96552141D01*
X151103193Y-96559453D01*
X151110017Y-96563489D01*
X151110020Y-96563491D01*
X151154312Y-96589685D01*
X151246399Y-96644145D01*
X151254010Y-96646356D01*
X151254012Y-96646357D01*
X151306231Y-96661528D01*
X151406169Y-96690562D01*
X151412582Y-96691067D01*
X151412589Y-96691068D01*
X151435388Y-96692863D01*
X151501729Y-96718149D01*
X151543868Y-96775288D01*
X151551500Y-96818474D01*
X151551500Y-104065999D01*
X151551493Y-104067319D01*
X151550578Y-104154678D01*
X151552067Y-104161563D01*
X151552067Y-104161566D01*
X151559414Y-104195545D01*
X151561475Y-104208128D01*
X151566136Y-104249682D01*
X151568454Y-104256337D01*
X151568455Y-104256343D01*
X151576744Y-104280146D01*
X151580907Y-104294955D01*
X151586236Y-104319601D01*
X151587725Y-104326486D01*
X151605402Y-104364395D01*
X151610184Y-104376171D01*
X151623943Y-104415681D01*
X151638854Y-104439544D01*
X151641037Y-104443037D01*
X151648377Y-104456556D01*
X151658484Y-104478230D01*
X151662011Y-104485794D01*
X151666324Y-104491354D01*
X151666325Y-104491356D01*
X151687640Y-104518835D01*
X151694929Y-104529283D01*
X151717091Y-104564749D01*
X151743750Y-104591596D01*
X151744819Y-104592672D01*
X151745373Y-104593264D01*
X151745877Y-104593913D01*
X151771031Y-104619067D01*
X151840949Y-104689475D01*
X151841959Y-104690116D01*
X151843138Y-104691174D01*
X154379627Y-107227664D01*
X154380556Y-107228602D01*
X154441671Y-107291011D01*
X154447591Y-107294826D01*
X154447597Y-107294831D01*
X154476817Y-107313662D01*
X154487170Y-107321101D01*
X154514341Y-107342791D01*
X154514345Y-107342794D01*
X154519850Y-107347188D01*
X154531850Y-107352989D01*
X154548890Y-107361227D01*
X154562302Y-107368753D01*
X154583500Y-107382414D01*
X154583505Y-107382416D01*
X154589424Y-107386231D01*
X154596040Y-107388639D01*
X154596044Y-107388641D01*
X154609044Y-107393372D01*
X154628716Y-107400532D01*
X154640460Y-107405493D01*
X154671761Y-107420625D01*
X154671764Y-107420626D01*
X154678104Y-107423691D01*
X154700078Y-107428764D01*
X154709538Y-107430948D01*
X154724290Y-107435318D01*
X154725395Y-107435720D01*
X154754600Y-107446350D01*
X154761590Y-107447233D01*
X154796078Y-107451590D01*
X154808629Y-107453825D01*
X154842515Y-107461648D01*
X154842517Y-107461648D01*
X154849377Y-107463232D01*
X154856417Y-107463257D01*
X154856420Y-107463257D01*
X154888704Y-107463370D01*
X154889541Y-107463398D01*
X154890354Y-107463500D01*
X154925946Y-107463500D01*
X154926387Y-107463501D01*
X155025152Y-107463846D01*
X155026320Y-107463585D01*
X155027888Y-107463500D01*
X175250999Y-107463500D01*
X175252320Y-107463507D01*
X175339678Y-107464422D01*
X175346563Y-107462933D01*
X175346566Y-107462933D01*
X175380545Y-107455586D01*
X175393128Y-107453525D01*
X175403237Y-107452391D01*
X175434682Y-107448864D01*
X175441337Y-107446546D01*
X175441343Y-107446545D01*
X175465146Y-107438256D01*
X175479955Y-107434093D01*
X175504601Y-107428764D01*
X175504605Y-107428763D01*
X175511486Y-107427275D01*
X175549395Y-107409598D01*
X175561171Y-107404816D01*
X175600681Y-107391057D01*
X175628039Y-107373962D01*
X175641556Y-107366623D01*
X175664415Y-107355964D01*
X175664418Y-107355962D01*
X175670794Y-107352989D01*
X175683942Y-107342791D01*
X175703835Y-107327360D01*
X175714283Y-107320071D01*
X175749749Y-107297909D01*
X175777672Y-107270181D01*
X175778264Y-107269627D01*
X175778913Y-107269123D01*
X175804067Y-107243969D01*
X175874475Y-107174051D01*
X175875116Y-107173041D01*
X175876174Y-107171862D01*
X178347664Y-104700373D01*
X178348602Y-104699444D01*
X178358073Y-104690169D01*
X178411011Y-104638329D01*
X178415179Y-104631862D01*
X178433666Y-104603176D01*
X178441104Y-104592825D01*
X178462793Y-104565655D01*
X178462795Y-104565652D01*
X178467187Y-104560150D01*
X178470885Y-104552500D01*
X178481228Y-104531107D01*
X178488754Y-104517697D01*
X178502411Y-104496504D01*
X178502412Y-104496502D01*
X178506231Y-104490576D01*
X178520535Y-104451275D01*
X178525491Y-104439544D01*
X178540625Y-104408239D01*
X178540626Y-104408236D01*
X178543691Y-104401896D01*
X178550948Y-104370462D01*
X178555318Y-104355710D01*
X178563941Y-104332019D01*
X178563941Y-104332018D01*
X178566350Y-104325400D01*
X178571590Y-104283922D01*
X178573825Y-104271371D01*
X178581648Y-104237485D01*
X178581648Y-104237483D01*
X178583232Y-104230623D01*
X178583370Y-104191296D01*
X178583398Y-104190459D01*
X178583500Y-104189646D01*
X178583500Y-104153900D01*
X178583846Y-104054848D01*
X178583585Y-104053680D01*
X178583500Y-104052112D01*
X178583500Y-81289001D01*
X178583507Y-81287681D01*
X178584348Y-81207363D01*
X178584422Y-81200322D01*
X178582103Y-81189595D01*
X178575585Y-81159445D01*
X178573525Y-81146867D01*
X178569649Y-81112312D01*
X178569648Y-81112308D01*
X178568864Y-81105318D01*
X178558257Y-81074860D01*
X178554093Y-81060046D01*
X178548764Y-81035397D01*
X178547276Y-81028514D01*
X178541425Y-81015966D01*
X178529602Y-80990610D01*
X178524806Y-80978800D01*
X178523115Y-80973945D01*
X178511057Y-80939319D01*
X178493959Y-80911957D01*
X178486626Y-80898451D01*
X178472989Y-80869207D01*
X178447367Y-80836175D01*
X178440074Y-80825721D01*
X178421641Y-80796223D01*
X178421640Y-80796222D01*
X178417909Y-80790251D01*
X178409595Y-80781878D01*
X178390181Y-80762328D01*
X178389627Y-80761736D01*
X178389123Y-80761087D01*
X178363971Y-80735935D01*
X178329034Y-80700753D01*
X178328416Y-80700126D01*
X178324883Y-80696518D01*
X178278818Y-80649478D01*
X178272896Y-80645661D01*
X178272893Y-80645659D01*
X178243667Y-80626824D01*
X178233328Y-80619396D01*
X178200639Y-80593301D01*
X178194297Y-80590235D01*
X178194292Y-80590232D01*
X178171599Y-80579262D01*
X178158187Y-80571736D01*
X178136989Y-80558075D01*
X178136984Y-80558073D01*
X178131065Y-80554258D01*
X178091770Y-80539956D01*
X178080026Y-80534995D01*
X178048733Y-80519867D01*
X178048731Y-80519866D01*
X178042384Y-80516798D01*
X178010945Y-80509540D01*
X177996209Y-80505174D01*
X177972509Y-80496548D01*
X177972505Y-80496547D01*
X177965889Y-80494139D01*
X177958903Y-80493256D01*
X177958901Y-80493256D01*
X177924410Y-80488899D01*
X177911858Y-80486664D01*
X177904230Y-80484903D01*
X177871112Y-80477257D01*
X177864072Y-80477232D01*
X177864069Y-80477232D01*
X177831785Y-80477119D01*
X177830948Y-80477091D01*
X177830135Y-80476989D01*
X177794543Y-80476989D01*
X177794103Y-80476988D01*
X177788348Y-80476968D01*
X177695336Y-80476643D01*
X177694168Y-80476904D01*
X177692600Y-80476989D01*
X158533463Y-80476989D01*
X158532143Y-80476982D01*
X158444832Y-80476067D01*
X158437947Y-80477556D01*
X158437944Y-80477556D01*
X158403965Y-80484903D01*
X158391382Y-80486964D01*
X158381273Y-80488098D01*
X158349829Y-80491625D01*
X158319352Y-80502238D01*
X158304556Y-80506396D01*
X158273025Y-80513214D01*
X158235116Y-80530891D01*
X158223340Y-80535673D01*
X158183830Y-80549432D01*
X158156474Y-80566526D01*
X158142955Y-80573866D01*
X158120096Y-80584525D01*
X158120093Y-80584527D01*
X158113717Y-80587500D01*
X158108157Y-80591813D01*
X158108155Y-80591814D01*
X158080676Y-80613129D01*
X158070228Y-80620418D01*
X158034762Y-80642580D01*
X158011840Y-80665342D01*
X158006839Y-80670308D01*
X158006247Y-80670862D01*
X158005598Y-80671366D01*
X157980446Y-80696518D01*
X157910036Y-80766438D01*
X157909395Y-80767448D01*
X157908337Y-80768627D01*
X157487369Y-81189595D01*
X157425057Y-81223621D01*
X157398274Y-81226500D01*
X156001866Y-81226500D01*
X155939684Y-81233255D01*
X155803295Y-81284385D01*
X155686739Y-81371739D01*
X155599385Y-81488295D01*
X155548255Y-81624684D01*
X155541500Y-81686866D01*
X155541500Y-83300011D01*
X155521498Y-83368132D01*
X155467842Y-83414625D01*
X155415500Y-83426011D01*
X154409500Y-83426011D01*
X154341379Y-83406009D01*
X154294886Y-83352353D01*
X154283500Y-83300011D01*
X154283500Y-82882145D01*
X154303502Y-82814024D01*
X154343664Y-82774713D01*
X154352652Y-82769205D01*
X154389416Y-82746676D01*
X154569969Y-82592469D01*
X154724176Y-82411916D01*
X154726755Y-82407708D01*
X154726759Y-82407702D01*
X154845654Y-82213683D01*
X154848240Y-82209463D01*
X154851214Y-82202285D01*
X154937211Y-81994667D01*
X154937212Y-81994665D01*
X154939105Y-81990094D01*
X154994535Y-81759211D01*
X155013165Y-81522500D01*
X154994535Y-81285789D01*
X154939105Y-81054906D01*
X154888753Y-80933344D01*
X154850135Y-80840111D01*
X154850133Y-80840107D01*
X154848240Y-80835537D01*
X154838772Y-80820086D01*
X154726759Y-80637298D01*
X154726755Y-80637292D01*
X154724176Y-80633084D01*
X154569969Y-80452531D01*
X154389416Y-80298324D01*
X154385208Y-80295745D01*
X154385202Y-80295741D01*
X154191183Y-80176846D01*
X154186963Y-80174260D01*
X154182393Y-80172367D01*
X154182389Y-80172365D01*
X153972167Y-80085289D01*
X153972165Y-80085288D01*
X153967594Y-80083395D01*
X153887391Y-80064140D01*
X153741524Y-80029120D01*
X153741518Y-80029119D01*
X153736711Y-80027965D01*
X153500000Y-80009335D01*
X153263289Y-80027965D01*
X153258482Y-80029119D01*
X153258476Y-80029120D01*
X153112609Y-80064140D01*
X153032406Y-80083395D01*
X153027835Y-80085288D01*
X153027833Y-80085289D01*
X152817611Y-80172365D01*
X152817607Y-80172367D01*
X152813037Y-80174260D01*
X152808817Y-80176846D01*
X152614798Y-80295741D01*
X152614792Y-80295745D01*
X152610584Y-80298324D01*
X152430031Y-80452531D01*
X152275824Y-80633084D01*
X152273245Y-80637292D01*
X152273241Y-80637298D01*
X152161228Y-80820086D01*
X152151760Y-80835537D01*
X152149867Y-80840107D01*
X152149865Y-80840111D01*
X152111247Y-80933344D01*
X152060895Y-81054906D01*
X152005465Y-81285789D01*
X151986835Y-81522500D01*
X152005465Y-81759211D01*
X152060895Y-81990094D01*
X152062788Y-81994665D01*
X152062789Y-81994667D01*
X152148787Y-82202285D01*
X152151760Y-82209463D01*
X152154346Y-82213683D01*
X152273241Y-82407702D01*
X152273245Y-82407708D01*
X152275824Y-82411916D01*
X152430031Y-82592469D01*
X152610584Y-82746676D01*
X152647348Y-82769205D01*
X152656336Y-82774713D01*
X152703967Y-82827361D01*
X152716500Y-82882145D01*
X152716500Y-83122296D01*
X152696498Y-83190417D01*
X152679595Y-83211391D01*
X152501880Y-83389106D01*
X152439568Y-83423132D01*
X152412785Y-83426011D01*
X152134490Y-83426011D01*
X152133170Y-83426004D01*
X152132124Y-83425993D01*
X152045811Y-83425089D01*
X152038929Y-83426577D01*
X152038928Y-83426577D01*
X152004934Y-83433926D01*
X151992356Y-83435986D01*
X151957801Y-83439862D01*
X151957797Y-83439863D01*
X151950807Y-83440647D01*
X151944161Y-83442962D01*
X151944159Y-83442962D01*
X151920349Y-83451254D01*
X151905535Y-83455418D01*
X151880885Y-83460747D01*
X151880884Y-83460747D01*
X151874003Y-83462235D01*
X151836102Y-83479909D01*
X151824296Y-83484703D01*
X151791455Y-83496139D01*
X151791453Y-83496140D01*
X151784808Y-83498454D01*
X151778838Y-83502185D01*
X151778837Y-83502185D01*
X151757455Y-83515546D01*
X151743935Y-83522887D01*
X151721074Y-83533547D01*
X151721071Y-83533549D01*
X151714695Y-83536522D01*
X151709135Y-83540835D01*
X151709133Y-83540836D01*
X151681654Y-83562151D01*
X151671206Y-83569440D01*
X151635740Y-83591602D01*
X151608893Y-83618261D01*
X151607817Y-83619330D01*
X151607225Y-83619884D01*
X151606576Y-83620388D01*
X151581424Y-83645540D01*
X151511014Y-83715460D01*
X151510373Y-83716470D01*
X151509315Y-83717649D01*
X147147369Y-88079595D01*
X147085057Y-88113621D01*
X147058274Y-88116500D01*
X147027767Y-88116500D01*
X146959646Y-88096498D01*
X146938672Y-88079595D01*
X146829776Y-87970699D01*
X146656558Y-87849411D01*
X146651580Y-87847090D01*
X146651577Y-87847088D01*
X146469892Y-87762367D01*
X146469891Y-87762366D01*
X146464910Y-87760044D01*
X146459602Y-87758622D01*
X146459600Y-87758621D01*
X146433796Y-87751707D01*
X146373173Y-87714755D01*
X146342152Y-87650894D01*
X146350580Y-87580400D01*
X146395783Y-87525653D01*
X146433796Y-87508293D01*
X146459600Y-87501379D01*
X146459602Y-87501378D01*
X146464910Y-87499956D01*
X146469892Y-87497633D01*
X146651577Y-87412912D01*
X146651580Y-87412910D01*
X146656558Y-87410589D01*
X146829776Y-87289301D01*
X146979301Y-87139776D01*
X147100589Y-86966558D01*
X147105369Y-86956309D01*
X147187633Y-86779892D01*
X147187634Y-86779891D01*
X147189956Y-86774910D01*
X147225323Y-86642921D01*
X147243262Y-86575970D01*
X147243262Y-86575968D01*
X147244686Y-86570655D01*
X147263116Y-86360000D01*
X147244686Y-86149345D01*
X147221203Y-86061706D01*
X147191379Y-85950400D01*
X147191378Y-85950398D01*
X147189956Y-85945090D01*
X147171836Y-85906232D01*
X147102912Y-85758423D01*
X147102910Y-85758420D01*
X147100589Y-85753442D01*
X146979301Y-85580224D01*
X146829776Y-85430699D01*
X146656558Y-85309411D01*
X146651580Y-85307090D01*
X146651577Y-85307088D01*
X146469892Y-85222367D01*
X146469891Y-85222366D01*
X146464910Y-85220044D01*
X146459602Y-85218622D01*
X146459600Y-85218621D01*
X146265970Y-85166738D01*
X146265968Y-85166738D01*
X146260655Y-85165314D01*
X146130534Y-85153930D01*
X146055478Y-85147363D01*
X146055475Y-85147363D01*
X146050000Y-85146884D01*
X146011905Y-85150217D01*
X145942300Y-85136229D01*
X145911828Y-85113792D01*
X141772919Y-80974883D01*
X141771990Y-80973945D01*
X141738082Y-80939319D01*
X141710829Y-80911489D01*
X141704907Y-80907672D01*
X141704904Y-80907670D01*
X141675678Y-80888835D01*
X141665339Y-80881407D01*
X141632650Y-80855312D01*
X141626308Y-80852246D01*
X141626303Y-80852243D01*
X141603610Y-80841273D01*
X141590198Y-80833747D01*
X141569000Y-80820086D01*
X141568995Y-80820084D01*
X141563076Y-80816269D01*
X141523781Y-80801967D01*
X141512037Y-80797006D01*
X141480744Y-80781878D01*
X141480742Y-80781877D01*
X141474395Y-80778809D01*
X141442956Y-80771551D01*
X141428220Y-80767185D01*
X141404520Y-80758559D01*
X141404516Y-80758558D01*
X141397900Y-80756150D01*
X141390914Y-80755267D01*
X141390912Y-80755267D01*
X141356421Y-80750910D01*
X141343869Y-80748675D01*
X141336630Y-80747004D01*
X141303123Y-80739268D01*
X141296083Y-80739243D01*
X141296080Y-80739243D01*
X141263796Y-80739130D01*
X141262959Y-80739102D01*
X141262146Y-80739000D01*
X141226554Y-80739000D01*
X141226114Y-80738999D01*
X141220359Y-80738979D01*
X141127347Y-80738654D01*
X141126179Y-80738915D01*
X141124611Y-80739000D01*
X140134500Y-80739000D01*
X140066379Y-80718998D01*
X140019886Y-80665342D01*
X140008500Y-80613000D01*
X140008500Y-80474366D01*
X140001745Y-80412184D01*
X139950615Y-80275795D01*
X139863261Y-80159239D01*
X139746705Y-80071885D01*
X139610316Y-80020755D01*
X139548134Y-80014000D01*
X137451866Y-80014000D01*
X137389684Y-80020755D01*
X137253295Y-80071885D01*
X137136739Y-80159239D01*
X137049385Y-80275795D01*
X136998255Y-80412184D01*
X136991500Y-80474366D01*
X136991500Y-81870774D01*
X136971498Y-81938895D01*
X136954595Y-81959869D01*
X136867383Y-82047081D01*
X136866445Y-82048010D01*
X136803989Y-82109171D01*
X136800172Y-82115093D01*
X136800170Y-82115096D01*
X136781335Y-82144322D01*
X136773907Y-82154661D01*
X136747812Y-82187350D01*
X136744746Y-82193692D01*
X136744743Y-82193697D01*
X136733773Y-82216390D01*
X136726247Y-82229802D01*
X136712586Y-82251000D01*
X136712584Y-82251005D01*
X136708769Y-82256924D01*
X136706360Y-82263544D01*
X136694469Y-82296215D01*
X136689506Y-82307963D01*
X136676660Y-82334537D01*
X136671309Y-82345605D01*
X136664051Y-82377044D01*
X136659685Y-82391780D01*
X136652357Y-82411916D01*
X136648650Y-82422100D01*
X136647767Y-82429086D01*
X136647767Y-82429088D01*
X136643410Y-82463579D01*
X136641175Y-82476131D01*
X136631768Y-82516877D01*
X136631743Y-82523917D01*
X136631743Y-82523920D01*
X136631630Y-82556204D01*
X136631602Y-82557041D01*
X136631500Y-82557854D01*
X136631500Y-82593600D01*
X136631154Y-82692653D01*
X136631415Y-82693821D01*
X136631500Y-82695389D01*
X136631500Y-82910500D01*
X136611498Y-82978621D01*
X136557842Y-83025114D01*
X136505500Y-83036500D01*
X131674500Y-83036500D01*
X131606379Y-83016498D01*
X131559886Y-82962842D01*
X131548500Y-82910500D01*
X131548500Y-82271866D01*
X131548016Y-82267406D01*
X131543930Y-82229802D01*
X131541745Y-82209684D01*
X131490615Y-82073295D01*
X131403261Y-81956739D01*
X131286705Y-81869385D01*
X131150316Y-81818255D01*
X131088134Y-81811500D01*
X127991866Y-81811500D01*
X127929684Y-81818255D01*
X127793295Y-81869385D01*
X127676739Y-81956739D01*
X127589385Y-82073295D01*
X127538255Y-82209684D01*
X127536070Y-82229802D01*
X127531985Y-82267406D01*
X127531500Y-82271866D01*
X127531500Y-85368134D01*
X127538255Y-85430316D01*
X127589385Y-85566705D01*
X127676739Y-85683261D01*
X127793295Y-85770615D01*
X127929684Y-85821745D01*
X127991866Y-85828500D01*
X128304815Y-85828500D01*
X128372936Y-85848502D01*
X128419429Y-85902158D01*
X128429533Y-85972432D01*
X128400039Y-86037012D01*
X128383596Y-86052834D01*
X128177318Y-86218094D01*
X128160717Y-86235588D01*
X128037459Y-86365475D01*
X127988808Y-86416742D01*
X127829002Y-86639136D01*
X127700857Y-86881161D01*
X127699385Y-86885184D01*
X127699383Y-86885188D01*
X127624802Y-87088989D01*
X127606743Y-87138337D01*
X127548404Y-87405907D01*
X127548068Y-87410177D01*
X127528895Y-87653792D01*
X127526917Y-87678918D01*
X127542682Y-87952320D01*
X127543507Y-87956525D01*
X127543508Y-87956533D01*
X127567652Y-88079595D01*
X127595405Y-88221053D01*
X127596792Y-88225103D01*
X127596793Y-88225108D01*
X127682723Y-88476088D01*
X127684112Y-88480144D01*
X127686039Y-88483975D01*
X127789329Y-88689345D01*
X127807160Y-88724799D01*
X127809586Y-88728328D01*
X127809589Y-88728334D01*
X127923810Y-88894525D01*
X127962274Y-88950490D01*
X128146582Y-89153043D01*
X128356675Y-89328707D01*
X128360316Y-89330991D01*
X128585024Y-89471951D01*
X128585028Y-89471953D01*
X128588664Y-89474234D01*
X128670231Y-89511063D01*
X128834345Y-89585164D01*
X128834349Y-89585166D01*
X128838257Y-89586930D01*
X128842377Y-89588150D01*
X128842376Y-89588150D01*
X129096723Y-89663491D01*
X129096727Y-89663492D01*
X129100836Y-89664709D01*
X129105070Y-89665357D01*
X129105075Y-89665358D01*
X129367298Y-89705483D01*
X129367300Y-89705483D01*
X129371540Y-89706132D01*
X129510912Y-89708322D01*
X129641071Y-89710367D01*
X129641077Y-89710367D01*
X129645362Y-89710434D01*
X129917235Y-89677534D01*
X130182127Y-89608041D01*
X130186087Y-89606401D01*
X130186092Y-89606399D01*
X130308632Y-89555641D01*
X130435136Y-89503241D01*
X130671582Y-89365073D01*
X130887089Y-89196094D01*
X130928809Y-89153043D01*
X131074686Y-89002509D01*
X131077669Y-88999431D01*
X131080202Y-88995983D01*
X131080206Y-88995978D01*
X131237257Y-88782178D01*
X131239795Y-88778723D01*
X131267154Y-88728334D01*
X131364320Y-88549378D01*
X131414403Y-88499056D01*
X131475051Y-88483500D01*
X136853274Y-88483500D01*
X136921395Y-88503502D01*
X136942369Y-88520405D01*
X137183792Y-88761828D01*
X137217818Y-88824140D01*
X137220217Y-88861905D01*
X137216884Y-88900000D01*
X137235314Y-89110655D01*
X137236738Y-89115968D01*
X137236738Y-89115970D01*
X137258918Y-89198745D01*
X137290044Y-89314910D01*
X137292366Y-89319891D01*
X137292367Y-89319892D01*
X137365162Y-89476000D01*
X137379411Y-89506558D01*
X137500699Y-89679776D01*
X137650224Y-89829301D01*
X137823442Y-89950589D01*
X137828420Y-89952910D01*
X137828423Y-89952912D01*
X137931323Y-90000895D01*
X138015090Y-90039956D01*
X138020398Y-90041378D01*
X138020400Y-90041379D01*
X138214030Y-90093262D01*
X138214032Y-90093262D01*
X138219345Y-90094686D01*
X138430000Y-90113116D01*
X138640655Y-90094686D01*
X138645968Y-90093262D01*
X138645970Y-90093262D01*
X138839600Y-90041379D01*
X138839602Y-90041378D01*
X138844910Y-90039956D01*
X138928677Y-90000895D01*
X139031577Y-89952912D01*
X139031580Y-89952910D01*
X139036558Y-89950589D01*
X139209776Y-89829301D01*
X139359301Y-89679776D01*
X139480589Y-89506558D01*
X139494839Y-89476000D01*
X139567633Y-89319892D01*
X139567634Y-89319891D01*
X139569956Y-89314910D01*
X139601083Y-89198745D01*
X139623262Y-89115970D01*
X139623262Y-89115968D01*
X139624686Y-89110655D01*
X139643116Y-88900000D01*
X139624686Y-88689345D01*
X139579419Y-88520405D01*
X139571379Y-88490400D01*
X139571378Y-88490398D01*
X139569956Y-88485090D01*
X139533052Y-88405949D01*
X139482912Y-88298423D01*
X139482910Y-88298420D01*
X139480589Y-88293442D01*
X139359301Y-88120224D01*
X139209776Y-87970699D01*
X139036558Y-87849411D01*
X139031580Y-87847090D01*
X139031577Y-87847088D01*
X138849892Y-87762367D01*
X138849891Y-87762366D01*
X138844910Y-87760044D01*
X138839602Y-87758622D01*
X138839600Y-87758621D01*
X138645970Y-87706738D01*
X138645968Y-87706738D01*
X138640655Y-87705314D01*
X138510534Y-87693930D01*
X138435478Y-87687363D01*
X138435475Y-87687363D01*
X138430000Y-87686884D01*
X138391905Y-87690217D01*
X138322300Y-87676229D01*
X138291828Y-87653792D01*
X137790419Y-87152383D01*
X137789490Y-87151445D01*
X137776654Y-87138337D01*
X137728329Y-87088989D01*
X137722407Y-87085172D01*
X137722404Y-87085170D01*
X137693178Y-87066335D01*
X137682839Y-87058907D01*
X137650150Y-87032812D01*
X137643808Y-87029746D01*
X137643803Y-87029743D01*
X137621110Y-87018773D01*
X137607698Y-87011247D01*
X137586500Y-86997586D01*
X137586495Y-86997584D01*
X137580576Y-86993769D01*
X137541281Y-86979467D01*
X137529537Y-86974506D01*
X137498244Y-86959378D01*
X137498242Y-86959377D01*
X137491895Y-86956309D01*
X137460456Y-86949051D01*
X137445720Y-86944685D01*
X137422020Y-86936059D01*
X137422016Y-86936058D01*
X137415400Y-86933650D01*
X137408414Y-86932767D01*
X137408412Y-86932767D01*
X137373921Y-86928410D01*
X137361369Y-86926175D01*
X137354130Y-86924504D01*
X137320623Y-86916768D01*
X137313583Y-86916743D01*
X137313580Y-86916743D01*
X137281296Y-86916630D01*
X137280459Y-86916602D01*
X137279646Y-86916500D01*
X137244054Y-86916500D01*
X137243614Y-86916499D01*
X137237859Y-86916479D01*
X137144847Y-86916154D01*
X137143679Y-86916415D01*
X137142111Y-86916500D01*
X131472653Y-86916500D01*
X131404532Y-86896498D01*
X131360687Y-86848290D01*
X131325385Y-86779892D01*
X131262013Y-86657112D01*
X131252040Y-86642921D01*
X131107008Y-86436562D01*
X131104545Y-86433057D01*
X130918125Y-86232445D01*
X130914810Y-86229731D01*
X130914806Y-86229728D01*
X130709523Y-86061706D01*
X130706205Y-86058990D01*
X130703095Y-86057084D01*
X130659251Y-86001439D01*
X130652436Y-85930771D01*
X130684909Y-85867636D01*
X130746360Y-85832080D01*
X130776181Y-85828500D01*
X131088134Y-85828500D01*
X131150316Y-85821745D01*
X131286705Y-85770615D01*
X131403261Y-85683261D01*
X131490615Y-85566705D01*
X131541745Y-85430316D01*
X131548500Y-85368134D01*
X131548500Y-84729500D01*
X131568502Y-84661379D01*
X131622158Y-84614886D01*
X131674500Y-84603500D01*
X137360588Y-84603500D01*
X137375507Y-84604386D01*
X137409496Y-84608439D01*
X137454360Y-84603724D01*
X137457142Y-84603500D01*
X137459201Y-84603500D01*
X137467256Y-84602597D01*
X137499133Y-84599022D01*
X137500003Y-84598927D01*
X137554014Y-84593249D01*
X137584310Y-84590065D01*
X137586932Y-84589173D01*
X137589682Y-84588864D01*
X137595765Y-84586746D01*
X137595768Y-84586745D01*
X137669599Y-84561034D01*
X137670391Y-84560760D01*
X137750709Y-84533418D01*
X137753067Y-84531967D01*
X137755681Y-84531057D01*
X137761171Y-84527626D01*
X137761174Y-84527625D01*
X137792923Y-84507786D01*
X137827599Y-84486118D01*
X137828160Y-84485769D01*
X137900423Y-84441313D01*
X137902400Y-84439377D01*
X137904749Y-84437909D01*
X137964879Y-84378197D01*
X137965506Y-84377579D01*
X138021384Y-84322860D01*
X138026011Y-84318329D01*
X138027511Y-84316001D01*
X138029475Y-84314051D01*
X138074953Y-84242388D01*
X138075260Y-84241908D01*
X138121231Y-84170576D01*
X138122178Y-84167973D01*
X138123661Y-84165637D01*
X138152072Y-84085849D01*
X138152370Y-84085021D01*
X138179141Y-84011470D01*
X138179142Y-84011467D01*
X138181350Y-84005400D01*
X138181697Y-84002654D01*
X138182626Y-84000045D01*
X138192662Y-83915885D01*
X138192769Y-83915014D01*
X138198004Y-83873576D01*
X138198004Y-83873569D01*
X138198500Y-83869646D01*
X138198500Y-83867579D01*
X138198752Y-83864810D01*
X138202605Y-83832497D01*
X138203439Y-83825504D01*
X138199190Y-83785078D01*
X138198500Y-83771907D01*
X138198500Y-83157000D01*
X138218502Y-83088879D01*
X138272158Y-83042386D01*
X138324500Y-83031000D01*
X139548134Y-83031000D01*
X139610316Y-83024245D01*
X139746705Y-82973115D01*
X139863261Y-82885761D01*
X139950615Y-82769205D01*
X140001745Y-82632816D01*
X140008500Y-82570634D01*
X140008500Y-82432000D01*
X140028502Y-82363879D01*
X140082158Y-82317386D01*
X140134500Y-82306000D01*
X140835774Y-82306000D01*
X140903895Y-82326002D01*
X140924869Y-82342905D01*
X144803792Y-86221828D01*
X144837818Y-86284140D01*
X144840217Y-86321905D01*
X144836884Y-86360000D01*
X144855314Y-86570655D01*
X144856738Y-86575968D01*
X144856738Y-86575970D01*
X144874678Y-86642921D01*
X144910044Y-86774910D01*
X144912366Y-86779891D01*
X144912367Y-86779892D01*
X144994632Y-86956309D01*
X144999411Y-86966558D01*
X145120699Y-87139776D01*
X145270224Y-87289301D01*
X145443442Y-87410589D01*
X145448420Y-87412910D01*
X145448423Y-87412912D01*
X145630108Y-87497633D01*
X145635090Y-87499956D01*
X145640398Y-87501378D01*
X145640400Y-87501379D01*
X145666204Y-87508293D01*
X145726827Y-87545245D01*
X145757848Y-87609106D01*
X145749420Y-87679600D01*
X145704217Y-87734347D01*
X145666204Y-87751707D01*
X145640400Y-87758621D01*
X145640398Y-87758622D01*
X145635090Y-87760044D01*
X145630109Y-87762366D01*
X145630108Y-87762367D01*
X145448423Y-87847088D01*
X145448420Y-87847090D01*
X145443442Y-87849411D01*
X145270224Y-87970699D01*
X145161328Y-88079595D01*
X145099016Y-88113621D01*
X145072233Y-88116500D01*
X142249001Y-88116500D01*
X142247681Y-88116493D01*
X142246635Y-88116482D01*
X142160322Y-88115578D01*
X142153440Y-88117066D01*
X142153439Y-88117066D01*
X142119445Y-88124415D01*
X142106867Y-88126475D01*
X142072312Y-88130351D01*
X142072308Y-88130352D01*
X142065318Y-88131136D01*
X142058672Y-88133451D01*
X142058670Y-88133451D01*
X142034860Y-88141743D01*
X142020046Y-88145907D01*
X141988514Y-88152724D01*
X141982127Y-88155702D01*
X141982128Y-88155702D01*
X141950610Y-88170398D01*
X141938801Y-88175193D01*
X141899319Y-88188943D01*
X141871960Y-88206039D01*
X141858451Y-88213374D01*
X141829207Y-88227011D01*
X141823638Y-88231331D01*
X141796176Y-88252632D01*
X141785721Y-88259926D01*
X141756223Y-88278359D01*
X141750251Y-88282091D01*
X141745257Y-88287051D01*
X141745256Y-88287051D01*
X141722328Y-88309819D01*
X141721736Y-88310373D01*
X141721087Y-88310877D01*
X141695935Y-88336029D01*
X141625525Y-88405949D01*
X141624884Y-88406959D01*
X141623826Y-88408138D01*
X134574869Y-95457095D01*
X134512557Y-95491121D01*
X134485774Y-95494000D01*
X125939645Y-95494000D01*
X125871524Y-95473998D01*
X125832213Y-95433836D01*
X125804176Y-95388084D01*
X125753024Y-95328193D01*
X125653177Y-95211287D01*
X125649969Y-95207531D01*
X125469416Y-95053324D01*
X125465208Y-95050745D01*
X125465202Y-95050741D01*
X125271183Y-94931846D01*
X125266963Y-94929260D01*
X125262393Y-94927367D01*
X125262389Y-94927365D01*
X125052167Y-94840289D01*
X125052165Y-94840288D01*
X125047594Y-94838395D01*
X124967391Y-94819140D01*
X124821524Y-94784120D01*
X124821518Y-94784119D01*
X124816711Y-94782965D01*
X124580000Y-94764335D01*
X124343289Y-94782965D01*
X124338482Y-94784119D01*
X124338476Y-94784120D01*
X124192609Y-94819140D01*
X124112406Y-94838395D01*
X124107835Y-94840288D01*
X124107833Y-94840289D01*
X123897611Y-94927365D01*
X123897607Y-94927367D01*
X123893037Y-94929260D01*
X123888817Y-94931846D01*
X123694798Y-95050741D01*
X123694792Y-95050745D01*
X123690584Y-95053324D01*
X123510031Y-95207531D01*
X123506823Y-95211287D01*
X123494543Y-95225665D01*
X123355824Y-95388084D01*
X123353245Y-95392292D01*
X123353241Y-95392298D01*
X123290918Y-95494000D01*
X123231760Y-95590537D01*
X123229867Y-95595107D01*
X123229865Y-95595111D01*
X123142789Y-95805333D01*
X123140895Y-95809906D01*
X123139740Y-95814718D01*
X123109211Y-95941881D01*
X123085465Y-96040789D01*
X123066835Y-96277500D01*
X114300000Y-96277500D01*
X114300000Y-71246000D01*
X114320002Y-71177879D01*
X114373658Y-71131386D01*
X114426000Y-71120000D01*
X187834000Y-71120000D01*
X187902121Y-71140002D01*
G37*
%TD.AperFunction*%
M02*
