%TF.GenerationSoftware,KiCad,Pcbnew,(6.0.4)*%
%TF.CreationDate,2022-06-15T15:41:16+05:30*%
%TF.ProjectId,subiksha batch,73756269-6b73-4686-9120-62617463682e,rev?*%
%TF.SameCoordinates,Original*%
%TF.FileFunction,Copper,L2,Bot*%
%TF.FilePolarity,Positive*%
%FSLAX46Y46*%
G04 Gerber Fmt 4.6, Leading zero omitted, Abs format (unit mm)*
G04 Created by KiCad (PCBNEW (6.0.4)) date 2022-06-15 15:41:16*
%MOMM*%
%LPD*%
G01*
G04 APERTURE LIST*
%TA.AperFunction,ComponentPad*%
%ADD10R,1.050000X1.500000*%
%TD*%
%TA.AperFunction,ComponentPad*%
%ADD11O,1.050000X1.500000*%
%TD*%
%TA.AperFunction,ComponentPad*%
%ADD12C,1.400000*%
%TD*%
%TA.AperFunction,ComponentPad*%
%ADD13O,1.400000X1.400000*%
%TD*%
%TA.AperFunction,ComponentPad*%
%ADD14R,2.000000X2.000000*%
%TD*%
%TA.AperFunction,ComponentPad*%
%ADD15C,2.000000*%
%TD*%
%TA.AperFunction,ComponentPad*%
%ADD16R,3.000000X3.000000*%
%TD*%
%TA.AperFunction,ComponentPad*%
%ADD17C,3.000000*%
%TD*%
%TA.AperFunction,ComponentPad*%
%ADD18O,2.000000X2.000000*%
%TD*%
G04 APERTURE END LIST*
D10*
%TO.P,Q2,1,C*%
%TO.N,Net-(BZ1-Pad2)*%
X170180000Y-101600000D03*
D11*
%TO.P,Q2,2,B*%
%TO.N,Net-(R5-Pad2)*%
X171450000Y-101600000D03*
%TO.P,Q2,3,E*%
%TO.N,GND*%
X172720000Y-101600000D03*
%TD*%
D12*
%TO.P,R3,1*%
%TO.N,Net-(R3-Pad1)*%
X143510000Y-101600000D03*
D13*
%TO.P,R3,2*%
%TO.N,Net-(R3-Pad2)*%
X135890000Y-101600000D03*
%TD*%
D12*
%TO.P,R4,1*%
%TO.N,Net-(J1-Pad2)*%
X138430000Y-88900000D03*
D13*
%TO.P,R4,2*%
%TO.N,GND*%
X146050000Y-88900000D03*
%TD*%
D14*
%TO.P,BZ1,1,-*%
%TO.N,VCC*%
X165100000Y-91440000D03*
D15*
%TO.P,BZ1,2,+*%
%TO.N,Net-(BZ1-Pad2)*%
X172700000Y-91440000D03*
%TD*%
D16*
%TO.P,J1,1,Pin_1*%
%TO.N,Net-(R2-Pad1)*%
X129540000Y-83820000D03*
D17*
%TO.P,J1,2,Pin_2*%
%TO.N,Net-(J1-Pad2)*%
X129540000Y-87700000D03*
%TD*%
D12*
%TO.P,R2,1*%
%TO.N,Net-(R2-Pad1)*%
X146050000Y-86360000D03*
D13*
%TO.P,R2,2*%
%TO.N,Net-(Q1-Pad2)*%
X153670000Y-86360000D03*
%TD*%
D14*
%TO.P,C3,1*%
%TO.N,Net-(R3-Pad2)*%
X139580000Y-96277500D03*
D18*
%TO.P,C3,2*%
%TO.N,GND*%
X124580000Y-96277500D03*
%TD*%
D12*
%TO.P,R1,1*%
%TO.N,VCC*%
X158750000Y-101600000D03*
D13*
%TO.P,R1,2*%
%TO.N,Net-(Q1-Pad2)*%
X166370000Y-101600000D03*
%TD*%
D12*
%TO.P,R5,1*%
%TO.N,Net-(R3-Pad1)*%
X148590000Y-101600000D03*
D13*
%TO.P,R5,2*%
%TO.N,Net-(R5-Pad2)*%
X156210000Y-101600000D03*
%TD*%
D10*
%TO.P,Q1,1,C*%
%TO.N,VCC*%
X157480000Y-93980000D03*
D11*
%TO.P,Q1,2,B*%
%TO.N,Net-(Q1-Pad2)*%
X158750000Y-93980000D03*
%TO.P,Q1,3,E*%
%TO.N,Net-(Q1-Pad3)*%
X160020000Y-93980000D03*
%TD*%
D14*
%TO.P,C2,1*%
%TO.N,Net-(C2-Pad1)*%
X157050000Y-82735000D03*
D18*
%TO.P,C2,2*%
%TO.N,GND*%
X172050000Y-82735000D03*
%TD*%
D14*
%TO.P,C1,1*%
%TO.N,Net-(R2-Pad1)*%
X138500000Y-81522500D03*
D18*
%TO.P,C1,2*%
%TO.N,GND*%
X153500000Y-81522500D03*
%TD*%
%TA.AperFunction,NonConductor*%
G36*
X187902121Y-71140002D02*
G01*
X187948614Y-71193658D01*
X187960000Y-71246000D01*
X187960000Y-114174000D01*
X187939998Y-114242121D01*
X187886342Y-114288614D01*
X187834000Y-114300000D01*
X114426000Y-114300000D01*
X114357879Y-114279998D01*
X114311386Y-114226342D01*
X114300000Y-114174000D01*
X114300000Y-101600000D01*
X134676884Y-101600000D01*
X134695314Y-101810655D01*
X134696738Y-101815968D01*
X134696738Y-101815970D01*
X134715686Y-101886683D01*
X134750044Y-102014910D01*
X134752366Y-102019891D01*
X134752367Y-102019892D01*
X134759317Y-102034795D01*
X134839411Y-102206558D01*
X134960699Y-102379776D01*
X135110224Y-102529301D01*
X135283442Y-102650589D01*
X135288420Y-102652910D01*
X135288423Y-102652912D01*
X135417842Y-102713261D01*
X135475090Y-102739956D01*
X135480398Y-102741378D01*
X135480400Y-102741379D01*
X135674030Y-102793262D01*
X135674032Y-102793262D01*
X135679345Y-102794686D01*
X135890000Y-102813116D01*
X136100655Y-102794686D01*
X136105968Y-102793262D01*
X136105970Y-102793262D01*
X136299600Y-102741379D01*
X136299602Y-102741378D01*
X136304910Y-102739956D01*
X136362158Y-102713261D01*
X136491577Y-102652912D01*
X136491580Y-102652910D01*
X136496558Y-102650589D01*
X136669776Y-102529301D01*
X136819301Y-102379776D01*
X136940589Y-102206558D01*
X137020684Y-102034795D01*
X137027633Y-102019892D01*
X137027634Y-102019891D01*
X137029956Y-102014910D01*
X137064315Y-101886683D01*
X137083262Y-101815970D01*
X137083262Y-101815968D01*
X137084686Y-101810655D01*
X137103116Y-101600000D01*
X142296884Y-101600000D01*
X142315314Y-101810655D01*
X142316738Y-101815968D01*
X142316738Y-101815970D01*
X142335686Y-101886683D01*
X142370044Y-102014910D01*
X142372366Y-102019891D01*
X142372367Y-102019892D01*
X142379317Y-102034795D01*
X142459411Y-102206558D01*
X142580699Y-102379776D01*
X142730224Y-102529301D01*
X142903442Y-102650589D01*
X142908420Y-102652910D01*
X142908423Y-102652912D01*
X143037842Y-102713261D01*
X143095090Y-102739956D01*
X143100398Y-102741378D01*
X143100400Y-102741379D01*
X143294030Y-102793262D01*
X143294032Y-102793262D01*
X143299345Y-102794686D01*
X143510000Y-102813116D01*
X143720655Y-102794686D01*
X143725968Y-102793262D01*
X143725970Y-102793262D01*
X143919600Y-102741379D01*
X143919602Y-102741378D01*
X143924910Y-102739956D01*
X143982158Y-102713261D01*
X144111577Y-102652912D01*
X144111580Y-102652910D01*
X144116558Y-102650589D01*
X144289776Y-102529301D01*
X144439301Y-102379776D01*
X144560589Y-102206558D01*
X144640684Y-102034795D01*
X144647633Y-102019892D01*
X144647634Y-102019891D01*
X144649956Y-102014910D01*
X144684315Y-101886683D01*
X144703262Y-101815970D01*
X144703262Y-101815968D01*
X144704686Y-101810655D01*
X144723116Y-101600000D01*
X147376884Y-101600000D01*
X147395314Y-101810655D01*
X147396738Y-101815968D01*
X147396738Y-101815970D01*
X147415686Y-101886683D01*
X147450044Y-102014910D01*
X147452366Y-102019891D01*
X147452367Y-102019892D01*
X147459317Y-102034795D01*
X147539411Y-102206558D01*
X147660699Y-102379776D01*
X147810224Y-102529301D01*
X147983442Y-102650589D01*
X147988420Y-102652910D01*
X147988423Y-102652912D01*
X148117842Y-102713261D01*
X148175090Y-102739956D01*
X148180398Y-102741378D01*
X148180400Y-102741379D01*
X148374030Y-102793262D01*
X148374032Y-102793262D01*
X148379345Y-102794686D01*
X148590000Y-102813116D01*
X148800655Y-102794686D01*
X148805968Y-102793262D01*
X148805970Y-102793262D01*
X148999600Y-102741379D01*
X148999602Y-102741378D01*
X149004910Y-102739956D01*
X149062158Y-102713261D01*
X149191577Y-102652912D01*
X149191580Y-102652910D01*
X149196558Y-102650589D01*
X149369776Y-102529301D01*
X149519301Y-102379776D01*
X149640589Y-102206558D01*
X149720684Y-102034795D01*
X149727633Y-102019892D01*
X149727634Y-102019891D01*
X149729956Y-102014910D01*
X149764315Y-101886683D01*
X149783262Y-101815970D01*
X149783262Y-101815968D01*
X149784686Y-101810655D01*
X149803116Y-101600000D01*
X154996884Y-101600000D01*
X155015314Y-101810655D01*
X155016738Y-101815968D01*
X155016738Y-101815970D01*
X155035686Y-101886683D01*
X155070044Y-102014910D01*
X155072366Y-102019891D01*
X155072367Y-102019892D01*
X155079317Y-102034795D01*
X155159411Y-102206558D01*
X155280699Y-102379776D01*
X155430224Y-102529301D01*
X155603442Y-102650589D01*
X155608420Y-102652910D01*
X155608423Y-102652912D01*
X155737842Y-102713261D01*
X155795090Y-102739956D01*
X155800398Y-102741378D01*
X155800400Y-102741379D01*
X155994030Y-102793262D01*
X155994032Y-102793262D01*
X155999345Y-102794686D01*
X156210000Y-102813116D01*
X156420655Y-102794686D01*
X156425968Y-102793262D01*
X156425970Y-102793262D01*
X156619600Y-102741379D01*
X156619602Y-102741378D01*
X156624910Y-102739956D01*
X156682158Y-102713261D01*
X156811577Y-102652912D01*
X156811580Y-102652910D01*
X156816558Y-102650589D01*
X156989776Y-102529301D01*
X157139301Y-102379776D01*
X157260589Y-102206558D01*
X157340684Y-102034795D01*
X157347633Y-102019892D01*
X157347634Y-102019891D01*
X157349956Y-102014910D01*
X157358293Y-101983796D01*
X157395245Y-101923173D01*
X157459106Y-101892152D01*
X157529600Y-101900580D01*
X157584347Y-101945783D01*
X157601707Y-101983796D01*
X157610044Y-102014910D01*
X157612366Y-102019891D01*
X157612367Y-102019892D01*
X157619317Y-102034795D01*
X157699411Y-102206558D01*
X157820699Y-102379776D01*
X157970224Y-102529301D01*
X158143442Y-102650589D01*
X158148420Y-102652910D01*
X158148423Y-102652912D01*
X158277842Y-102713261D01*
X158335090Y-102739956D01*
X158340398Y-102741378D01*
X158340400Y-102741379D01*
X158534030Y-102793262D01*
X158534032Y-102793262D01*
X158539345Y-102794686D01*
X158750000Y-102813116D01*
X158960655Y-102794686D01*
X158965968Y-102793262D01*
X158965970Y-102793262D01*
X159159600Y-102741379D01*
X159159602Y-102741378D01*
X159164910Y-102739956D01*
X159222158Y-102713261D01*
X159351577Y-102652912D01*
X159351580Y-102652910D01*
X159356558Y-102650589D01*
X159529776Y-102529301D01*
X159679301Y-102379776D01*
X159800589Y-102206558D01*
X159880684Y-102034795D01*
X159887633Y-102019892D01*
X159887634Y-102019891D01*
X159889956Y-102014910D01*
X159924315Y-101886683D01*
X159943262Y-101815970D01*
X159943262Y-101815968D01*
X159944686Y-101810655D01*
X159963116Y-101600000D01*
X165156884Y-101600000D01*
X165175314Y-101810655D01*
X165176738Y-101815968D01*
X165176738Y-101815970D01*
X165195686Y-101886683D01*
X165230044Y-102014910D01*
X165232366Y-102019891D01*
X165232367Y-102019892D01*
X165239317Y-102034795D01*
X165319411Y-102206558D01*
X165440699Y-102379776D01*
X165590224Y-102529301D01*
X165763442Y-102650589D01*
X165768420Y-102652910D01*
X165768423Y-102652912D01*
X165897842Y-102713261D01*
X165955090Y-102739956D01*
X165960398Y-102741378D01*
X165960400Y-102741379D01*
X166154030Y-102793262D01*
X166154032Y-102793262D01*
X166159345Y-102794686D01*
X166370000Y-102813116D01*
X166580655Y-102794686D01*
X166585968Y-102793262D01*
X166585970Y-102793262D01*
X166779600Y-102741379D01*
X166779602Y-102741378D01*
X166784910Y-102739956D01*
X166842158Y-102713261D01*
X166971577Y-102652912D01*
X166971580Y-102652910D01*
X166976558Y-102650589D01*
X167149776Y-102529301D01*
X167280943Y-102398134D01*
X169146500Y-102398134D01*
X169153255Y-102460316D01*
X169204385Y-102596705D01*
X169291739Y-102713261D01*
X169408295Y-102800615D01*
X169544684Y-102851745D01*
X169606866Y-102858500D01*
X170753134Y-102858500D01*
X170815316Y-102851745D01*
X170856623Y-102836260D01*
X170943296Y-102803768D01*
X170943299Y-102803766D01*
X170951705Y-102800615D01*
X170958894Y-102795227D01*
X170959137Y-102795094D01*
X171028494Y-102779924D01*
X171056907Y-102785248D01*
X171241180Y-102842290D01*
X171247305Y-102842934D01*
X171247306Y-102842934D01*
X171436622Y-102862832D01*
X171436623Y-102862832D01*
X171442750Y-102863476D01*
X171526014Y-102855898D01*
X171638457Y-102845665D01*
X171638460Y-102845664D01*
X171644596Y-102845106D01*
X171650502Y-102843368D01*
X171650506Y-102843367D01*
X171814521Y-102795094D01*
X171839029Y-102787881D01*
X171844486Y-102785028D01*
X171844489Y-102785027D01*
X171981765Y-102713261D01*
X172018460Y-102694077D01*
X172018462Y-102694077D01*
X172018645Y-102693981D01*
X172018663Y-102694016D01*
X172084441Y-102674111D01*
X172145409Y-102689271D01*
X172317565Y-102782356D01*
X172386733Y-102803767D01*
X172505293Y-102840468D01*
X172505296Y-102840469D01*
X172511180Y-102842290D01*
X172517305Y-102842934D01*
X172517306Y-102842934D01*
X172706622Y-102862832D01*
X172706623Y-102862832D01*
X172712750Y-102863476D01*
X172796014Y-102855898D01*
X172908457Y-102845665D01*
X172908460Y-102845664D01*
X172914596Y-102845106D01*
X172920502Y-102843368D01*
X172920506Y-102843367D01*
X173084521Y-102795094D01*
X173109029Y-102787881D01*
X173114486Y-102785028D01*
X173114489Y-102785027D01*
X173251765Y-102713261D01*
X173288645Y-102693981D01*
X173446601Y-102566981D01*
X173576881Y-102411719D01*
X173579845Y-102406327D01*
X173579848Y-102406323D01*
X173671556Y-102239506D01*
X173674523Y-102234109D01*
X173735807Y-102040916D01*
X173738166Y-102019892D01*
X173749014Y-101923173D01*
X173753500Y-101883183D01*
X173753500Y-101323996D01*
X173738723Y-101173287D01*
X173680142Y-100979258D01*
X173584990Y-100800302D01*
X173456890Y-100643237D01*
X173418772Y-100611703D01*
X173305472Y-100517973D01*
X173305469Y-100517971D01*
X173300722Y-100514044D01*
X173122435Y-100417644D01*
X173023066Y-100386884D01*
X172934707Y-100359532D01*
X172934704Y-100359531D01*
X172928820Y-100357710D01*
X172922695Y-100357066D01*
X172922694Y-100357066D01*
X172733378Y-100337168D01*
X172733377Y-100337168D01*
X172727250Y-100336524D01*
X172643986Y-100344102D01*
X172531543Y-100354335D01*
X172531540Y-100354336D01*
X172525404Y-100354894D01*
X172519498Y-100356632D01*
X172519494Y-100356633D01*
X172415084Y-100387363D01*
X172330971Y-100412119D01*
X172325514Y-100414972D01*
X172325511Y-100414973D01*
X172242020Y-100458621D01*
X172151540Y-100505923D01*
X172151538Y-100505923D01*
X172151355Y-100506019D01*
X172151337Y-100505984D01*
X172085559Y-100525889D01*
X172024591Y-100510729D01*
X172015815Y-100505984D01*
X171852435Y-100417644D01*
X171753066Y-100386884D01*
X171664707Y-100359532D01*
X171664704Y-100359531D01*
X171658820Y-100357710D01*
X171652695Y-100357066D01*
X171652694Y-100357066D01*
X171463378Y-100337168D01*
X171463377Y-100337168D01*
X171457250Y-100336524D01*
X171373986Y-100344102D01*
X171261543Y-100354335D01*
X171261540Y-100354336D01*
X171255404Y-100354894D01*
X171249498Y-100356632D01*
X171249494Y-100356633D01*
X171066879Y-100410380D01*
X171066877Y-100410381D01*
X171065493Y-100410788D01*
X171060971Y-100412119D01*
X171060718Y-100411260D01*
X170995338Y-100417714D01*
X170958594Y-100404548D01*
X170951705Y-100399385D01*
X170943304Y-100396236D01*
X170943301Y-100396234D01*
X170831534Y-100354335D01*
X170815316Y-100348255D01*
X170753134Y-100341500D01*
X169606866Y-100341500D01*
X169544684Y-100348255D01*
X169408295Y-100399385D01*
X169291739Y-100486739D01*
X169204385Y-100603295D01*
X169153255Y-100739684D01*
X169146500Y-100801866D01*
X169146500Y-102398134D01*
X167280943Y-102398134D01*
X167299301Y-102379776D01*
X167420589Y-102206558D01*
X167500684Y-102034795D01*
X167507633Y-102019892D01*
X167507634Y-102019891D01*
X167509956Y-102014910D01*
X167544315Y-101886683D01*
X167563262Y-101815970D01*
X167563262Y-101815968D01*
X167564686Y-101810655D01*
X167583116Y-101600000D01*
X167564686Y-101389345D01*
X167509956Y-101185090D01*
X167420589Y-100993442D01*
X167299301Y-100820224D01*
X167149776Y-100670699D01*
X166976558Y-100549411D01*
X166971580Y-100547090D01*
X166971577Y-100547088D01*
X166789892Y-100462367D01*
X166789891Y-100462366D01*
X166784910Y-100460044D01*
X166779602Y-100458622D01*
X166779600Y-100458621D01*
X166585970Y-100406738D01*
X166585968Y-100406738D01*
X166580655Y-100405314D01*
X166370000Y-100386884D01*
X166159345Y-100405314D01*
X166154032Y-100406738D01*
X166154030Y-100406738D01*
X165960400Y-100458621D01*
X165960398Y-100458622D01*
X165955090Y-100460044D01*
X165950109Y-100462366D01*
X165950108Y-100462367D01*
X165768423Y-100547088D01*
X165768420Y-100547090D01*
X165763442Y-100549411D01*
X165590224Y-100670699D01*
X165440699Y-100820224D01*
X165319411Y-100993442D01*
X165230044Y-101185090D01*
X165175314Y-101389345D01*
X165156884Y-101600000D01*
X159963116Y-101600000D01*
X159944686Y-101389345D01*
X159889956Y-101185090D01*
X159800589Y-100993442D01*
X159679301Y-100820224D01*
X159529776Y-100670699D01*
X159356558Y-100549411D01*
X159351580Y-100547090D01*
X159351577Y-100547088D01*
X159169892Y-100462367D01*
X159169891Y-100462366D01*
X159164910Y-100460044D01*
X159159602Y-100458622D01*
X159159600Y-100458621D01*
X158965970Y-100406738D01*
X158965968Y-100406738D01*
X158960655Y-100405314D01*
X158750000Y-100386884D01*
X158539345Y-100405314D01*
X158534032Y-100406738D01*
X158534030Y-100406738D01*
X158340400Y-100458621D01*
X158340398Y-100458622D01*
X158335090Y-100460044D01*
X158330109Y-100462366D01*
X158330108Y-100462367D01*
X158148423Y-100547088D01*
X158148420Y-100547090D01*
X158143442Y-100549411D01*
X157970224Y-100670699D01*
X157820699Y-100820224D01*
X157699411Y-100993442D01*
X157610044Y-101185090D01*
X157608622Y-101190398D01*
X157608621Y-101190400D01*
X157601707Y-101216204D01*
X157564755Y-101276827D01*
X157500894Y-101307848D01*
X157430400Y-101299420D01*
X157375653Y-101254217D01*
X157358293Y-101216204D01*
X157351379Y-101190400D01*
X157351378Y-101190398D01*
X157349956Y-101185090D01*
X157260589Y-100993442D01*
X157139301Y-100820224D01*
X156989776Y-100670699D01*
X156816558Y-100549411D01*
X156811580Y-100547090D01*
X156811577Y-100547088D01*
X156629892Y-100462367D01*
X156629891Y-100462366D01*
X156624910Y-100460044D01*
X156619602Y-100458622D01*
X156619600Y-100458621D01*
X156425970Y-100406738D01*
X156425968Y-100406738D01*
X156420655Y-100405314D01*
X156210000Y-100386884D01*
X155999345Y-100405314D01*
X155994032Y-100406738D01*
X155994030Y-100406738D01*
X155800400Y-100458621D01*
X155800398Y-100458622D01*
X155795090Y-100460044D01*
X155790109Y-100462366D01*
X155790108Y-100462367D01*
X155608423Y-100547088D01*
X155608420Y-100547090D01*
X155603442Y-100549411D01*
X155430224Y-100670699D01*
X155280699Y-100820224D01*
X155159411Y-100993442D01*
X155070044Y-101185090D01*
X155015314Y-101389345D01*
X154996884Y-101600000D01*
X149803116Y-101600000D01*
X149784686Y-101389345D01*
X149729956Y-101185090D01*
X149640589Y-100993442D01*
X149519301Y-100820224D01*
X149369776Y-100670699D01*
X149196558Y-100549411D01*
X149191580Y-100547090D01*
X149191577Y-100547088D01*
X149009892Y-100462367D01*
X149009891Y-100462366D01*
X149004910Y-100460044D01*
X148999602Y-100458622D01*
X148999600Y-100458621D01*
X148805970Y-100406738D01*
X148805968Y-100406738D01*
X148800655Y-100405314D01*
X148590000Y-100386884D01*
X148379345Y-100405314D01*
X148374032Y-100406738D01*
X148374030Y-100406738D01*
X148180400Y-100458621D01*
X148180398Y-100458622D01*
X148175090Y-100460044D01*
X148170109Y-100462366D01*
X148170108Y-100462367D01*
X147988423Y-100547088D01*
X147988420Y-100547090D01*
X147983442Y-100549411D01*
X147810224Y-100670699D01*
X147660699Y-100820224D01*
X147539411Y-100993442D01*
X147450044Y-101185090D01*
X147395314Y-101389345D01*
X147376884Y-101600000D01*
X144723116Y-101600000D01*
X144704686Y-101389345D01*
X144649956Y-101185090D01*
X144560589Y-100993442D01*
X144439301Y-100820224D01*
X144289776Y-100670699D01*
X144116558Y-100549411D01*
X144111580Y-100547090D01*
X144111577Y-100547088D01*
X143929892Y-100462367D01*
X143929891Y-100462366D01*
X143924910Y-100460044D01*
X143919602Y-100458622D01*
X143919600Y-100458621D01*
X143725970Y-100406738D01*
X143725968Y-100406738D01*
X143720655Y-100405314D01*
X143510000Y-100386884D01*
X143299345Y-100405314D01*
X143294032Y-100406738D01*
X143294030Y-100406738D01*
X143100400Y-100458621D01*
X143100398Y-100458622D01*
X143095090Y-100460044D01*
X143090109Y-100462366D01*
X143090108Y-100462367D01*
X142908423Y-100547088D01*
X142908420Y-100547090D01*
X142903442Y-100549411D01*
X142730224Y-100670699D01*
X142580699Y-100820224D01*
X142459411Y-100993442D01*
X142370044Y-101185090D01*
X142315314Y-101389345D01*
X142296884Y-101600000D01*
X137103116Y-101600000D01*
X137084686Y-101389345D01*
X137029956Y-101185090D01*
X136940589Y-100993442D01*
X136819301Y-100820224D01*
X136669776Y-100670699D01*
X136496558Y-100549411D01*
X136491580Y-100547090D01*
X136491577Y-100547088D01*
X136309892Y-100462367D01*
X136309891Y-100462366D01*
X136304910Y-100460044D01*
X136299602Y-100458622D01*
X136299600Y-100458621D01*
X136105970Y-100406738D01*
X136105968Y-100406738D01*
X136100655Y-100405314D01*
X135890000Y-100386884D01*
X135679345Y-100405314D01*
X135674032Y-100406738D01*
X135674030Y-100406738D01*
X135480400Y-100458621D01*
X135480398Y-100458622D01*
X135475090Y-100460044D01*
X135470109Y-100462366D01*
X135470108Y-100462367D01*
X135288423Y-100547088D01*
X135288420Y-100547090D01*
X135283442Y-100549411D01*
X135110224Y-100670699D01*
X134960699Y-100820224D01*
X134839411Y-100993442D01*
X134750044Y-101185090D01*
X134695314Y-101389345D01*
X134676884Y-101600000D01*
X114300000Y-101600000D01*
X114300000Y-96277500D01*
X123066835Y-96277500D01*
X123085465Y-96514211D01*
X123140895Y-96745094D01*
X123231760Y-96964463D01*
X123234346Y-96968683D01*
X123353241Y-97162702D01*
X123353245Y-97162708D01*
X123355824Y-97166916D01*
X123510031Y-97347469D01*
X123690584Y-97501676D01*
X123694792Y-97504255D01*
X123694798Y-97504259D01*
X123888817Y-97623154D01*
X123893037Y-97625740D01*
X123897607Y-97627633D01*
X123897611Y-97627635D01*
X124107833Y-97714711D01*
X124112406Y-97716605D01*
X124160349Y-97728115D01*
X124338476Y-97770880D01*
X124338482Y-97770881D01*
X124343289Y-97772035D01*
X124580000Y-97790665D01*
X124816711Y-97772035D01*
X124821518Y-97770881D01*
X124821524Y-97770880D01*
X124999651Y-97728115D01*
X125047594Y-97716605D01*
X125052167Y-97714711D01*
X125262389Y-97627635D01*
X125262393Y-97627633D01*
X125266963Y-97625740D01*
X125271183Y-97623154D01*
X125465202Y-97504259D01*
X125465208Y-97504255D01*
X125469416Y-97501676D01*
X125649969Y-97347469D01*
X125668618Y-97325634D01*
X138071500Y-97325634D01*
X138078255Y-97387816D01*
X138129385Y-97524205D01*
X138216739Y-97640761D01*
X138333295Y-97728115D01*
X138469684Y-97779245D01*
X138531866Y-97786000D01*
X140628134Y-97786000D01*
X140690316Y-97779245D01*
X140826705Y-97728115D01*
X140943261Y-97640761D01*
X141030615Y-97524205D01*
X141081745Y-97387816D01*
X141088500Y-97325634D01*
X141088500Y-95229366D01*
X141081745Y-95167184D01*
X141030615Y-95030795D01*
X140943261Y-94914239D01*
X140826705Y-94826885D01*
X140696662Y-94778134D01*
X156446500Y-94778134D01*
X156453255Y-94840316D01*
X156504385Y-94976705D01*
X156591739Y-95093261D01*
X156708295Y-95180615D01*
X156844684Y-95231745D01*
X156906866Y-95238500D01*
X158053134Y-95238500D01*
X158115316Y-95231745D01*
X158179907Y-95207531D01*
X158243296Y-95183768D01*
X158243299Y-95183766D01*
X158251705Y-95180615D01*
X158258894Y-95175227D01*
X158259137Y-95175094D01*
X158328494Y-95159924D01*
X158356907Y-95165248D01*
X158541180Y-95222290D01*
X158547305Y-95222934D01*
X158547306Y-95222934D01*
X158736622Y-95242832D01*
X158736623Y-95242832D01*
X158742750Y-95243476D01*
X158826014Y-95235898D01*
X158938457Y-95225665D01*
X158938460Y-95225664D01*
X158944596Y-95225106D01*
X158950502Y-95223368D01*
X158950506Y-95223367D01*
X159133120Y-95169620D01*
X159133119Y-95169620D01*
X159139029Y-95167881D01*
X159144486Y-95165028D01*
X159144489Y-95165027D01*
X159281765Y-95093261D01*
X159318460Y-95074077D01*
X159318462Y-95074077D01*
X159318645Y-95073981D01*
X159318663Y-95074016D01*
X159384441Y-95054111D01*
X159445409Y-95069271D01*
X159617565Y-95162356D01*
X159686733Y-95183767D01*
X159805293Y-95220468D01*
X159805296Y-95220469D01*
X159811180Y-95222290D01*
X159817305Y-95222934D01*
X159817306Y-95222934D01*
X160006622Y-95242832D01*
X160006623Y-95242832D01*
X160012750Y-95243476D01*
X160096014Y-95235898D01*
X160208457Y-95225665D01*
X160208460Y-95225664D01*
X160214596Y-95225106D01*
X160220502Y-95223368D01*
X160220506Y-95223367D01*
X160403120Y-95169620D01*
X160403119Y-95169620D01*
X160409029Y-95167881D01*
X160414486Y-95165028D01*
X160414489Y-95165027D01*
X160551765Y-95093261D01*
X160588645Y-95073981D01*
X160610344Y-95056535D01*
X160632098Y-95039044D01*
X160746601Y-94946981D01*
X160876881Y-94791719D01*
X160879845Y-94786327D01*
X160879848Y-94786323D01*
X160971556Y-94619506D01*
X160974523Y-94614109D01*
X161035807Y-94420916D01*
X161053500Y-94263183D01*
X161053500Y-93703996D01*
X161038723Y-93553287D01*
X160980142Y-93359258D01*
X160884990Y-93180302D01*
X160756890Y-93023237D01*
X160718772Y-92991703D01*
X160605472Y-92897973D01*
X160605469Y-92897971D01*
X160600722Y-92894044D01*
X160422435Y-92797644D01*
X160325628Y-92767677D01*
X160234707Y-92739532D01*
X160234704Y-92739531D01*
X160228820Y-92737710D01*
X160222695Y-92737066D01*
X160222694Y-92737066D01*
X160033378Y-92717168D01*
X160033377Y-92717168D01*
X160027250Y-92716524D01*
X159943986Y-92724102D01*
X159831543Y-92734335D01*
X159831540Y-92734336D01*
X159825404Y-92734894D01*
X159819498Y-92736632D01*
X159819494Y-92736633D01*
X159684947Y-92776233D01*
X159630971Y-92792119D01*
X159625514Y-92794972D01*
X159625511Y-92794973D01*
X159541163Y-92839069D01*
X159451540Y-92885923D01*
X159451538Y-92885923D01*
X159451355Y-92886019D01*
X159451337Y-92885984D01*
X159385559Y-92905889D01*
X159324591Y-92890729D01*
X159315815Y-92885984D01*
X159152435Y-92797644D01*
X159055628Y-92767677D01*
X158964707Y-92739532D01*
X158964704Y-92739531D01*
X158958820Y-92737710D01*
X158952695Y-92737066D01*
X158952694Y-92737066D01*
X158763378Y-92717168D01*
X158763377Y-92717168D01*
X158757250Y-92716524D01*
X158673986Y-92724102D01*
X158561543Y-92734335D01*
X158561540Y-92734336D01*
X158555404Y-92734894D01*
X158549498Y-92736632D01*
X158549494Y-92736633D01*
X158366879Y-92790380D01*
X158366877Y-92790381D01*
X158365493Y-92790788D01*
X158360971Y-92792119D01*
X158360718Y-92791260D01*
X158295338Y-92797714D01*
X158258594Y-92784548D01*
X158251705Y-92779385D01*
X158243304Y-92776236D01*
X158243301Y-92776234D01*
X158131534Y-92734335D01*
X158115316Y-92728255D01*
X158053134Y-92721500D01*
X156906866Y-92721500D01*
X156844684Y-92728255D01*
X156708295Y-92779385D01*
X156591739Y-92866739D01*
X156504385Y-92983295D01*
X156453255Y-93119684D01*
X156446500Y-93181866D01*
X156446500Y-94778134D01*
X140696662Y-94778134D01*
X140690316Y-94775755D01*
X140628134Y-94769000D01*
X138531866Y-94769000D01*
X138469684Y-94775755D01*
X138333295Y-94826885D01*
X138216739Y-94914239D01*
X138129385Y-95030795D01*
X138078255Y-95167184D01*
X138071500Y-95229366D01*
X138071500Y-97325634D01*
X125668618Y-97325634D01*
X125804176Y-97166916D01*
X125806755Y-97162708D01*
X125806759Y-97162702D01*
X125925654Y-96968683D01*
X125928240Y-96964463D01*
X126019105Y-96745094D01*
X126074535Y-96514211D01*
X126093165Y-96277500D01*
X126074535Y-96040789D01*
X126019105Y-95809906D01*
X125928240Y-95590537D01*
X125925654Y-95586317D01*
X125806759Y-95392298D01*
X125806755Y-95392292D01*
X125804176Y-95388084D01*
X125665457Y-95225665D01*
X125653177Y-95211287D01*
X125649969Y-95207531D01*
X125469416Y-95053324D01*
X125465208Y-95050745D01*
X125465202Y-95050741D01*
X125271183Y-94931846D01*
X125266963Y-94929260D01*
X125262393Y-94927367D01*
X125262389Y-94927365D01*
X125052167Y-94840289D01*
X125052165Y-94840288D01*
X125047594Y-94838395D01*
X124967391Y-94819140D01*
X124821524Y-94784120D01*
X124821518Y-94784119D01*
X124816711Y-94782965D01*
X124580000Y-94764335D01*
X124343289Y-94782965D01*
X124338482Y-94784119D01*
X124338476Y-94784120D01*
X124192609Y-94819140D01*
X124112406Y-94838395D01*
X124107835Y-94840288D01*
X124107833Y-94840289D01*
X123897611Y-94927365D01*
X123897607Y-94927367D01*
X123893037Y-94929260D01*
X123888817Y-94931846D01*
X123694798Y-95050741D01*
X123694792Y-95050745D01*
X123690584Y-95053324D01*
X123510031Y-95207531D01*
X123506823Y-95211287D01*
X123494543Y-95225665D01*
X123355824Y-95388084D01*
X123353245Y-95392292D01*
X123353241Y-95392298D01*
X123234346Y-95586317D01*
X123231760Y-95590537D01*
X123140895Y-95809906D01*
X123085465Y-96040789D01*
X123066835Y-96277500D01*
X114300000Y-96277500D01*
X114300000Y-92488134D01*
X163591500Y-92488134D01*
X163598255Y-92550316D01*
X163649385Y-92686705D01*
X163736739Y-92803261D01*
X163853295Y-92890615D01*
X163989684Y-92941745D01*
X164051866Y-92948500D01*
X166148134Y-92948500D01*
X166210316Y-92941745D01*
X166346705Y-92890615D01*
X166463261Y-92803261D01*
X166550615Y-92686705D01*
X166601745Y-92550316D01*
X166608500Y-92488134D01*
X166608500Y-91440000D01*
X171186835Y-91440000D01*
X171205465Y-91676711D01*
X171260895Y-91907594D01*
X171351760Y-92126963D01*
X171354346Y-92131183D01*
X171473241Y-92325202D01*
X171473245Y-92325208D01*
X171475824Y-92329416D01*
X171630031Y-92509969D01*
X171810584Y-92664176D01*
X171814792Y-92666755D01*
X171814798Y-92666759D01*
X171928822Y-92736633D01*
X172013037Y-92788240D01*
X172017607Y-92790133D01*
X172017611Y-92790135D01*
X172227833Y-92877211D01*
X172232406Y-92879105D01*
X172280349Y-92890615D01*
X172458476Y-92933380D01*
X172458482Y-92933381D01*
X172463289Y-92934535D01*
X172700000Y-92953165D01*
X172936711Y-92934535D01*
X172941518Y-92933381D01*
X172941524Y-92933380D01*
X173119651Y-92890615D01*
X173167594Y-92879105D01*
X173172167Y-92877211D01*
X173382389Y-92790135D01*
X173382393Y-92790133D01*
X173386963Y-92788240D01*
X173471178Y-92736633D01*
X173585202Y-92666759D01*
X173585208Y-92666755D01*
X173589416Y-92664176D01*
X173769969Y-92509969D01*
X173924176Y-92329416D01*
X173926755Y-92325208D01*
X173926759Y-92325202D01*
X174045654Y-92131183D01*
X174048240Y-92126963D01*
X174139105Y-91907594D01*
X174194535Y-91676711D01*
X174213165Y-91440000D01*
X174194535Y-91203289D01*
X174139105Y-90972406D01*
X174048240Y-90753037D01*
X174045654Y-90748817D01*
X173926759Y-90554798D01*
X173926755Y-90554792D01*
X173924176Y-90550584D01*
X173769969Y-90370031D01*
X173589416Y-90215824D01*
X173585208Y-90213245D01*
X173585202Y-90213241D01*
X173391183Y-90094346D01*
X173386963Y-90091760D01*
X173382393Y-90089867D01*
X173382389Y-90089865D01*
X173172167Y-90002789D01*
X173172165Y-90002788D01*
X173167594Y-90000895D01*
X173087391Y-89981640D01*
X172941524Y-89946620D01*
X172941518Y-89946619D01*
X172936711Y-89945465D01*
X172700000Y-89926835D01*
X172463289Y-89945465D01*
X172458482Y-89946619D01*
X172458476Y-89946620D01*
X172312609Y-89981640D01*
X172232406Y-90000895D01*
X172227835Y-90002788D01*
X172227833Y-90002789D01*
X172017611Y-90089865D01*
X172017607Y-90089867D01*
X172013037Y-90091760D01*
X172008817Y-90094346D01*
X171814798Y-90213241D01*
X171814792Y-90213245D01*
X171810584Y-90215824D01*
X171630031Y-90370031D01*
X171475824Y-90550584D01*
X171473245Y-90554792D01*
X171473241Y-90554798D01*
X171354346Y-90748817D01*
X171351760Y-90753037D01*
X171260895Y-90972406D01*
X171205465Y-91203289D01*
X171186835Y-91440000D01*
X166608500Y-91440000D01*
X166608500Y-90391866D01*
X166601745Y-90329684D01*
X166550615Y-90193295D01*
X166463261Y-90076739D01*
X166346705Y-89989385D01*
X166210316Y-89938255D01*
X166148134Y-89931500D01*
X164051866Y-89931500D01*
X163989684Y-89938255D01*
X163853295Y-89989385D01*
X163736739Y-90076739D01*
X163649385Y-90193295D01*
X163598255Y-90329684D01*
X163591500Y-90391866D01*
X163591500Y-92488134D01*
X114300000Y-92488134D01*
X114300000Y-87678918D01*
X127526917Y-87678918D01*
X127542682Y-87952320D01*
X127543507Y-87956525D01*
X127543508Y-87956533D01*
X127554127Y-88010657D01*
X127595405Y-88221053D01*
X127596792Y-88225103D01*
X127596793Y-88225108D01*
X127682723Y-88476088D01*
X127684112Y-88480144D01*
X127686039Y-88483975D01*
X127789329Y-88689345D01*
X127807160Y-88724799D01*
X127809586Y-88728328D01*
X127809589Y-88728334D01*
X127923810Y-88894525D01*
X127962274Y-88950490D01*
X128146582Y-89153043D01*
X128356675Y-89328707D01*
X128360316Y-89330991D01*
X128585024Y-89471951D01*
X128585028Y-89471953D01*
X128588664Y-89474234D01*
X128670231Y-89511063D01*
X128834345Y-89585164D01*
X128834349Y-89585166D01*
X128838257Y-89586930D01*
X128842377Y-89588150D01*
X128842376Y-89588150D01*
X129096723Y-89663491D01*
X129096727Y-89663492D01*
X129100836Y-89664709D01*
X129105070Y-89665357D01*
X129105075Y-89665358D01*
X129367298Y-89705483D01*
X129367300Y-89705483D01*
X129371540Y-89706132D01*
X129510912Y-89708322D01*
X129641071Y-89710367D01*
X129641077Y-89710367D01*
X129645362Y-89710434D01*
X129917235Y-89677534D01*
X130182127Y-89608041D01*
X130186087Y-89606401D01*
X130186092Y-89606399D01*
X130308632Y-89555641D01*
X130435136Y-89503241D01*
X130671582Y-89365073D01*
X130887089Y-89196094D01*
X130928809Y-89153043D01*
X131074686Y-89002509D01*
X131077669Y-88999431D01*
X131080202Y-88995983D01*
X131080206Y-88995978D01*
X131150709Y-88900000D01*
X137216884Y-88900000D01*
X137235314Y-89110655D01*
X137236738Y-89115968D01*
X137236738Y-89115970D01*
X137258918Y-89198745D01*
X137290044Y-89314910D01*
X137292366Y-89319891D01*
X137292367Y-89319892D01*
X137365162Y-89476000D01*
X137379411Y-89506558D01*
X137500699Y-89679776D01*
X137650224Y-89829301D01*
X137823442Y-89950589D01*
X137828420Y-89952910D01*
X137828423Y-89952912D01*
X137931323Y-90000895D01*
X138015090Y-90039956D01*
X138020398Y-90041378D01*
X138020400Y-90041379D01*
X138214030Y-90093262D01*
X138214032Y-90093262D01*
X138219345Y-90094686D01*
X138430000Y-90113116D01*
X138640655Y-90094686D01*
X138645968Y-90093262D01*
X138645970Y-90093262D01*
X138839600Y-90041379D01*
X138839602Y-90041378D01*
X138844910Y-90039956D01*
X138928677Y-90000895D01*
X139031577Y-89952912D01*
X139031580Y-89952910D01*
X139036558Y-89950589D01*
X139209776Y-89829301D01*
X139359301Y-89679776D01*
X139480589Y-89506558D01*
X139494839Y-89476000D01*
X139567633Y-89319892D01*
X139567634Y-89319891D01*
X139569956Y-89314910D01*
X139601083Y-89198745D01*
X139623262Y-89115970D01*
X139623262Y-89115968D01*
X139624686Y-89110655D01*
X139643116Y-88900000D01*
X144836884Y-88900000D01*
X144855314Y-89110655D01*
X144856738Y-89115968D01*
X144856738Y-89115970D01*
X144878918Y-89198745D01*
X144910044Y-89314910D01*
X144912366Y-89319891D01*
X144912367Y-89319892D01*
X144985162Y-89476000D01*
X144999411Y-89506558D01*
X145120699Y-89679776D01*
X145270224Y-89829301D01*
X145443442Y-89950589D01*
X145448420Y-89952910D01*
X145448423Y-89952912D01*
X145551323Y-90000895D01*
X145635090Y-90039956D01*
X145640398Y-90041378D01*
X145640400Y-90041379D01*
X145834030Y-90093262D01*
X145834032Y-90093262D01*
X145839345Y-90094686D01*
X146050000Y-90113116D01*
X146260655Y-90094686D01*
X146265968Y-90093262D01*
X146265970Y-90093262D01*
X146459600Y-90041379D01*
X146459602Y-90041378D01*
X146464910Y-90039956D01*
X146548677Y-90000895D01*
X146651577Y-89952912D01*
X146651580Y-89952910D01*
X146656558Y-89950589D01*
X146829776Y-89829301D01*
X146979301Y-89679776D01*
X147100589Y-89506558D01*
X147114839Y-89476000D01*
X147187633Y-89319892D01*
X147187634Y-89319891D01*
X147189956Y-89314910D01*
X147221083Y-89198745D01*
X147243262Y-89115970D01*
X147243262Y-89115968D01*
X147244686Y-89110655D01*
X147263116Y-88900000D01*
X147244686Y-88689345D01*
X147243262Y-88684030D01*
X147191379Y-88490400D01*
X147191378Y-88490398D01*
X147189956Y-88485090D01*
X147100589Y-88293442D01*
X146979301Y-88120224D01*
X146829776Y-87970699D01*
X146656558Y-87849411D01*
X146651580Y-87847090D01*
X146651577Y-87847088D01*
X146469892Y-87762367D01*
X146469891Y-87762366D01*
X146464910Y-87760044D01*
X146459602Y-87758622D01*
X146459600Y-87758621D01*
X146433796Y-87751707D01*
X146373173Y-87714755D01*
X146342152Y-87650894D01*
X146350580Y-87580400D01*
X146395783Y-87525653D01*
X146433796Y-87508293D01*
X146459600Y-87501379D01*
X146459602Y-87501378D01*
X146464910Y-87499956D01*
X146621841Y-87426778D01*
X146651577Y-87412912D01*
X146651580Y-87412910D01*
X146656558Y-87410589D01*
X146829776Y-87289301D01*
X146979301Y-87139776D01*
X147100589Y-86966558D01*
X147129525Y-86904506D01*
X147187633Y-86779892D01*
X147187634Y-86779891D01*
X147189956Y-86774910D01*
X147225323Y-86642921D01*
X147243262Y-86575970D01*
X147243262Y-86575968D01*
X147244686Y-86570655D01*
X147263116Y-86360000D01*
X152456884Y-86360000D01*
X152475314Y-86570655D01*
X152476738Y-86575968D01*
X152476738Y-86575970D01*
X152494678Y-86642921D01*
X152530044Y-86774910D01*
X152532366Y-86779891D01*
X152532367Y-86779892D01*
X152590476Y-86904506D01*
X152619411Y-86966558D01*
X152740699Y-87139776D01*
X152890224Y-87289301D01*
X153063442Y-87410589D01*
X153068420Y-87412910D01*
X153068423Y-87412912D01*
X153098159Y-87426778D01*
X153255090Y-87499956D01*
X153260398Y-87501378D01*
X153260400Y-87501379D01*
X153454030Y-87553262D01*
X153454032Y-87553262D01*
X153459345Y-87554686D01*
X153670000Y-87573116D01*
X153880655Y-87554686D01*
X153885968Y-87553262D01*
X153885970Y-87553262D01*
X154079600Y-87501379D01*
X154079602Y-87501378D01*
X154084910Y-87499956D01*
X154241841Y-87426778D01*
X154271577Y-87412912D01*
X154271580Y-87412910D01*
X154276558Y-87410589D01*
X154449776Y-87289301D01*
X154599301Y-87139776D01*
X154720589Y-86966558D01*
X154749525Y-86904506D01*
X154807633Y-86779892D01*
X154807634Y-86779891D01*
X154809956Y-86774910D01*
X154845323Y-86642921D01*
X154863262Y-86575970D01*
X154863262Y-86575968D01*
X154864686Y-86570655D01*
X154883116Y-86360000D01*
X154864686Y-86149345D01*
X154841203Y-86061706D01*
X154811379Y-85950400D01*
X154811378Y-85950398D01*
X154809956Y-85945090D01*
X154791836Y-85906232D01*
X154722912Y-85758423D01*
X154722910Y-85758420D01*
X154720589Y-85753442D01*
X154599301Y-85580224D01*
X154449776Y-85430699D01*
X154276558Y-85309411D01*
X154271580Y-85307090D01*
X154271577Y-85307088D01*
X154089892Y-85222367D01*
X154089891Y-85222366D01*
X154084910Y-85220044D01*
X154079602Y-85218622D01*
X154079600Y-85218621D01*
X153885970Y-85166738D01*
X153885968Y-85166738D01*
X153880655Y-85165314D01*
X153670000Y-85146884D01*
X153459345Y-85165314D01*
X153454032Y-85166738D01*
X153454030Y-85166738D01*
X153260400Y-85218621D01*
X153260398Y-85218622D01*
X153255090Y-85220044D01*
X153250109Y-85222366D01*
X153250108Y-85222367D01*
X153068423Y-85307088D01*
X153068420Y-85307090D01*
X153063442Y-85309411D01*
X152890224Y-85430699D01*
X152740699Y-85580224D01*
X152619411Y-85753442D01*
X152617090Y-85758420D01*
X152617088Y-85758423D01*
X152548164Y-85906232D01*
X152530044Y-85945090D01*
X152528622Y-85950398D01*
X152528621Y-85950400D01*
X152498797Y-86061706D01*
X152475314Y-86149345D01*
X152456884Y-86360000D01*
X147263116Y-86360000D01*
X147244686Y-86149345D01*
X147221203Y-86061706D01*
X147191379Y-85950400D01*
X147191378Y-85950398D01*
X147189956Y-85945090D01*
X147171836Y-85906232D01*
X147102912Y-85758423D01*
X147102910Y-85758420D01*
X147100589Y-85753442D01*
X146979301Y-85580224D01*
X146829776Y-85430699D01*
X146656558Y-85309411D01*
X146651580Y-85307090D01*
X146651577Y-85307088D01*
X146469892Y-85222367D01*
X146469891Y-85222366D01*
X146464910Y-85220044D01*
X146459602Y-85218622D01*
X146459600Y-85218621D01*
X146265970Y-85166738D01*
X146265968Y-85166738D01*
X146260655Y-85165314D01*
X146050000Y-85146884D01*
X145839345Y-85165314D01*
X145834032Y-85166738D01*
X145834030Y-85166738D01*
X145640400Y-85218621D01*
X145640398Y-85218622D01*
X145635090Y-85220044D01*
X145630109Y-85222366D01*
X145630108Y-85222367D01*
X145448423Y-85307088D01*
X145448420Y-85307090D01*
X145443442Y-85309411D01*
X145270224Y-85430699D01*
X145120699Y-85580224D01*
X144999411Y-85753442D01*
X144997090Y-85758420D01*
X144997088Y-85758423D01*
X144928164Y-85906232D01*
X144910044Y-85945090D01*
X144908622Y-85950398D01*
X144908621Y-85950400D01*
X144878797Y-86061706D01*
X144855314Y-86149345D01*
X144836884Y-86360000D01*
X144855314Y-86570655D01*
X144856738Y-86575968D01*
X144856738Y-86575970D01*
X144874678Y-86642921D01*
X144910044Y-86774910D01*
X144912366Y-86779891D01*
X144912367Y-86779892D01*
X144970476Y-86904506D01*
X144999411Y-86966558D01*
X145120699Y-87139776D01*
X145270224Y-87289301D01*
X145443442Y-87410589D01*
X145448420Y-87412910D01*
X145448423Y-87412912D01*
X145478159Y-87426778D01*
X145635090Y-87499956D01*
X145640398Y-87501378D01*
X145640400Y-87501379D01*
X145666204Y-87508293D01*
X145726827Y-87545245D01*
X145757848Y-87609106D01*
X145749420Y-87679600D01*
X145704217Y-87734347D01*
X145666204Y-87751707D01*
X145640400Y-87758621D01*
X145640398Y-87758622D01*
X145635090Y-87760044D01*
X145630109Y-87762366D01*
X145630108Y-87762367D01*
X145448423Y-87847088D01*
X145448420Y-87847090D01*
X145443442Y-87849411D01*
X145270224Y-87970699D01*
X145120699Y-88120224D01*
X144999411Y-88293442D01*
X144910044Y-88485090D01*
X144908622Y-88490398D01*
X144908621Y-88490400D01*
X144856738Y-88684030D01*
X144855314Y-88689345D01*
X144836884Y-88900000D01*
X139643116Y-88900000D01*
X139624686Y-88689345D01*
X139623262Y-88684030D01*
X139571379Y-88490400D01*
X139571378Y-88490398D01*
X139569956Y-88485090D01*
X139480589Y-88293442D01*
X139359301Y-88120224D01*
X139209776Y-87970699D01*
X139036558Y-87849411D01*
X139031580Y-87847090D01*
X139031577Y-87847088D01*
X138849892Y-87762367D01*
X138849891Y-87762366D01*
X138844910Y-87760044D01*
X138839602Y-87758622D01*
X138839600Y-87758621D01*
X138645970Y-87706738D01*
X138645968Y-87706738D01*
X138640655Y-87705314D01*
X138430000Y-87686884D01*
X138219345Y-87705314D01*
X138214032Y-87706738D01*
X138214030Y-87706738D01*
X138020400Y-87758621D01*
X138020398Y-87758622D01*
X138015090Y-87760044D01*
X138010109Y-87762366D01*
X138010108Y-87762367D01*
X137828423Y-87847088D01*
X137828420Y-87847090D01*
X137823442Y-87849411D01*
X137650224Y-87970699D01*
X137500699Y-88120224D01*
X137379411Y-88293442D01*
X137290044Y-88485090D01*
X137288622Y-88490398D01*
X137288621Y-88490400D01*
X137236738Y-88684030D01*
X137235314Y-88689345D01*
X137216884Y-88900000D01*
X131150709Y-88900000D01*
X131237257Y-88782178D01*
X131239795Y-88778723D01*
X131267154Y-88728334D01*
X131368418Y-88541830D01*
X131368419Y-88541828D01*
X131370468Y-88538054D01*
X131462899Y-88293442D01*
X131465751Y-88285895D01*
X131465752Y-88285891D01*
X131467269Y-88281877D01*
X131528407Y-88014933D01*
X131552751Y-87742161D01*
X131553193Y-87700000D01*
X131551465Y-87674648D01*
X131534859Y-87431055D01*
X131534858Y-87431049D01*
X131534567Y-87426778D01*
X131531696Y-87412912D01*
X131479901Y-87162809D01*
X131479032Y-87158612D01*
X131387617Y-86900465D01*
X131262013Y-86657112D01*
X131252040Y-86642921D01*
X131107008Y-86436562D01*
X131104545Y-86433057D01*
X130918125Y-86232445D01*
X130914810Y-86229731D01*
X130914806Y-86229728D01*
X130709523Y-86061706D01*
X130706205Y-86058990D01*
X130703095Y-86057084D01*
X130659251Y-86001439D01*
X130652436Y-85930771D01*
X130684909Y-85867636D01*
X130746360Y-85832080D01*
X130776181Y-85828500D01*
X131088134Y-85828500D01*
X131150316Y-85821745D01*
X131286705Y-85770615D01*
X131403261Y-85683261D01*
X131490615Y-85566705D01*
X131541745Y-85430316D01*
X131548500Y-85368134D01*
X131548500Y-83783134D01*
X155541500Y-83783134D01*
X155548255Y-83845316D01*
X155599385Y-83981705D01*
X155686739Y-84098261D01*
X155803295Y-84185615D01*
X155939684Y-84236745D01*
X156001866Y-84243500D01*
X158098134Y-84243500D01*
X158160316Y-84236745D01*
X158296705Y-84185615D01*
X158413261Y-84098261D01*
X158500615Y-83981705D01*
X158551745Y-83845316D01*
X158558500Y-83783134D01*
X158558500Y-82735000D01*
X170536835Y-82735000D01*
X170555465Y-82971711D01*
X170610895Y-83202594D01*
X170701760Y-83421963D01*
X170704346Y-83426183D01*
X170823241Y-83620202D01*
X170823245Y-83620208D01*
X170825824Y-83624416D01*
X170980031Y-83804969D01*
X171160584Y-83959176D01*
X171164792Y-83961755D01*
X171164798Y-83961759D01*
X171358817Y-84080654D01*
X171363037Y-84083240D01*
X171367607Y-84085133D01*
X171367611Y-84085135D01*
X171577833Y-84172211D01*
X171582406Y-84174105D01*
X171630349Y-84185615D01*
X171808476Y-84228380D01*
X171808482Y-84228381D01*
X171813289Y-84229535D01*
X172050000Y-84248165D01*
X172286711Y-84229535D01*
X172291518Y-84228381D01*
X172291524Y-84228380D01*
X172469651Y-84185615D01*
X172517594Y-84174105D01*
X172522167Y-84172211D01*
X172732389Y-84085135D01*
X172732393Y-84085133D01*
X172736963Y-84083240D01*
X172741183Y-84080654D01*
X172935202Y-83961759D01*
X172935208Y-83961755D01*
X172939416Y-83959176D01*
X173119969Y-83804969D01*
X173274176Y-83624416D01*
X173276755Y-83620208D01*
X173276759Y-83620202D01*
X173395654Y-83426183D01*
X173398240Y-83421963D01*
X173489105Y-83202594D01*
X173544535Y-82971711D01*
X173563165Y-82735000D01*
X173544535Y-82498289D01*
X173489105Y-82267406D01*
X173468450Y-82217540D01*
X173400135Y-82052611D01*
X173400133Y-82052607D01*
X173398240Y-82048037D01*
X173365535Y-81994667D01*
X173276759Y-81849798D01*
X173276755Y-81849792D01*
X173274176Y-81845584D01*
X173119969Y-81665031D01*
X172939416Y-81510824D01*
X172935208Y-81508245D01*
X172935202Y-81508241D01*
X172741183Y-81389346D01*
X172736963Y-81386760D01*
X172732393Y-81384867D01*
X172732389Y-81384865D01*
X172522167Y-81297789D01*
X172522165Y-81297788D01*
X172517594Y-81295895D01*
X172437391Y-81276640D01*
X172291524Y-81241620D01*
X172291518Y-81241619D01*
X172286711Y-81240465D01*
X172050000Y-81221835D01*
X171813289Y-81240465D01*
X171808482Y-81241619D01*
X171808476Y-81241620D01*
X171662609Y-81276640D01*
X171582406Y-81295895D01*
X171577835Y-81297788D01*
X171577833Y-81297789D01*
X171367611Y-81384865D01*
X171367607Y-81384867D01*
X171363037Y-81386760D01*
X171358817Y-81389346D01*
X171164798Y-81508241D01*
X171164792Y-81508245D01*
X171160584Y-81510824D01*
X170980031Y-81665031D01*
X170825824Y-81845584D01*
X170823245Y-81849792D01*
X170823241Y-81849798D01*
X170734465Y-81994667D01*
X170701760Y-82048037D01*
X170699867Y-82052607D01*
X170699865Y-82052611D01*
X170631550Y-82217540D01*
X170610895Y-82267406D01*
X170555465Y-82498289D01*
X170536835Y-82735000D01*
X158558500Y-82735000D01*
X158558500Y-81686866D01*
X158551745Y-81624684D01*
X158500615Y-81488295D01*
X158413261Y-81371739D01*
X158296705Y-81284385D01*
X158160316Y-81233255D01*
X158098134Y-81226500D01*
X156001866Y-81226500D01*
X155939684Y-81233255D01*
X155803295Y-81284385D01*
X155686739Y-81371739D01*
X155599385Y-81488295D01*
X155548255Y-81624684D01*
X155541500Y-81686866D01*
X155541500Y-83783134D01*
X131548500Y-83783134D01*
X131548500Y-82570634D01*
X136991500Y-82570634D01*
X136998255Y-82632816D01*
X137049385Y-82769205D01*
X137136739Y-82885761D01*
X137253295Y-82973115D01*
X137389684Y-83024245D01*
X137451866Y-83031000D01*
X139548134Y-83031000D01*
X139610316Y-83024245D01*
X139746705Y-82973115D01*
X139863261Y-82885761D01*
X139950615Y-82769205D01*
X140001745Y-82632816D01*
X140008500Y-82570634D01*
X140008500Y-81522500D01*
X151986835Y-81522500D01*
X152005465Y-81759211D01*
X152060895Y-81990094D01*
X152062788Y-81994665D01*
X152062789Y-81994667D01*
X152148787Y-82202285D01*
X152151760Y-82209463D01*
X152154346Y-82213683D01*
X152273241Y-82407702D01*
X152273245Y-82407708D01*
X152275824Y-82411916D01*
X152430031Y-82592469D01*
X152610584Y-82746676D01*
X152614792Y-82749255D01*
X152614798Y-82749259D01*
X152808817Y-82868154D01*
X152813037Y-82870740D01*
X152817607Y-82872633D01*
X152817611Y-82872635D01*
X153027833Y-82959711D01*
X153032406Y-82961605D01*
X153074501Y-82971711D01*
X153258476Y-83015880D01*
X153258482Y-83015881D01*
X153263289Y-83017035D01*
X153500000Y-83035665D01*
X153736711Y-83017035D01*
X153741518Y-83015881D01*
X153741524Y-83015880D01*
X153925499Y-82971711D01*
X153967594Y-82961605D01*
X153972167Y-82959711D01*
X154182389Y-82872635D01*
X154182393Y-82872633D01*
X154186963Y-82870740D01*
X154191183Y-82868154D01*
X154385202Y-82749259D01*
X154385208Y-82749255D01*
X154389416Y-82746676D01*
X154569969Y-82592469D01*
X154724176Y-82411916D01*
X154726755Y-82407708D01*
X154726759Y-82407702D01*
X154845654Y-82213683D01*
X154848240Y-82209463D01*
X154851214Y-82202285D01*
X154937211Y-81994667D01*
X154937212Y-81994665D01*
X154939105Y-81990094D01*
X154994535Y-81759211D01*
X155013165Y-81522500D01*
X154994535Y-81285789D01*
X154939105Y-81054906D01*
X154848240Y-80835537D01*
X154845654Y-80831317D01*
X154726759Y-80637298D01*
X154726755Y-80637292D01*
X154724176Y-80633084D01*
X154569969Y-80452531D01*
X154389416Y-80298324D01*
X154385208Y-80295745D01*
X154385202Y-80295741D01*
X154191183Y-80176846D01*
X154186963Y-80174260D01*
X154182393Y-80172367D01*
X154182389Y-80172365D01*
X153972167Y-80085289D01*
X153972165Y-80085288D01*
X153967594Y-80083395D01*
X153887391Y-80064140D01*
X153741524Y-80029120D01*
X153741518Y-80029119D01*
X153736711Y-80027965D01*
X153500000Y-80009335D01*
X153263289Y-80027965D01*
X153258482Y-80029119D01*
X153258476Y-80029120D01*
X153112609Y-80064140D01*
X153032406Y-80083395D01*
X153027835Y-80085288D01*
X153027833Y-80085289D01*
X152817611Y-80172365D01*
X152817607Y-80172367D01*
X152813037Y-80174260D01*
X152808817Y-80176846D01*
X152614798Y-80295741D01*
X152614792Y-80295745D01*
X152610584Y-80298324D01*
X152430031Y-80452531D01*
X152275824Y-80633084D01*
X152273245Y-80637292D01*
X152273241Y-80637298D01*
X152154346Y-80831317D01*
X152151760Y-80835537D01*
X152060895Y-81054906D01*
X152005465Y-81285789D01*
X151986835Y-81522500D01*
X140008500Y-81522500D01*
X140008500Y-80474366D01*
X140001745Y-80412184D01*
X139950615Y-80275795D01*
X139863261Y-80159239D01*
X139746705Y-80071885D01*
X139610316Y-80020755D01*
X139548134Y-80014000D01*
X137451866Y-80014000D01*
X137389684Y-80020755D01*
X137253295Y-80071885D01*
X137136739Y-80159239D01*
X137049385Y-80275795D01*
X136998255Y-80412184D01*
X136991500Y-80474366D01*
X136991500Y-82570634D01*
X131548500Y-82570634D01*
X131548500Y-82271866D01*
X131548016Y-82267406D01*
X131542598Y-82217540D01*
X131541745Y-82209684D01*
X131490615Y-82073295D01*
X131403261Y-81956739D01*
X131286705Y-81869385D01*
X131150316Y-81818255D01*
X131088134Y-81811500D01*
X127991866Y-81811500D01*
X127929684Y-81818255D01*
X127793295Y-81869385D01*
X127676739Y-81956739D01*
X127589385Y-82073295D01*
X127538255Y-82209684D01*
X127537402Y-82217540D01*
X127531985Y-82267406D01*
X127531500Y-82271866D01*
X127531500Y-85368134D01*
X127538255Y-85430316D01*
X127589385Y-85566705D01*
X127676739Y-85683261D01*
X127793295Y-85770615D01*
X127929684Y-85821745D01*
X127991866Y-85828500D01*
X128304815Y-85828500D01*
X128372936Y-85848502D01*
X128419429Y-85902158D01*
X128429533Y-85972432D01*
X128400039Y-86037012D01*
X128383596Y-86052834D01*
X128177318Y-86218094D01*
X128160717Y-86235588D01*
X128037459Y-86365475D01*
X127988808Y-86416742D01*
X127829002Y-86639136D01*
X127700857Y-86881161D01*
X127699385Y-86885184D01*
X127699383Y-86885188D01*
X127669606Y-86966558D01*
X127606743Y-87138337D01*
X127548404Y-87405907D01*
X127526917Y-87678918D01*
X114300000Y-87678918D01*
X114300000Y-71246000D01*
X114320002Y-71177879D01*
X114373658Y-71131386D01*
X114426000Y-71120000D01*
X187834000Y-71120000D01*
X187902121Y-71140002D01*
G37*
%TD.AperFunction*%
M02*
